<svg width="32" height="32" viewBox="0 0 32 32" fill="none" xmlns="http://www.w3.org/2000/svg">
<g clip-path="url(#clip0_3385_58564)">
<path d="M15.9993 2.66675C8.65268 2.66675 2.66602 8.65341 2.66602 16.0001C2.66602 23.3467 8.65268 29.3334 15.9993 29.3334C23.346 29.3334 29.3327 23.3467 29.3327 16.0001C29.3327 8.65341 23.346 2.66675 15.9993 2.66675ZM19.7193 16.7067L15.0127 21.4134C14.8127 21.6134 14.5593 21.7067 14.306 21.7067C14.0527 21.7067 13.7993 21.6134 13.5993 21.4134C13.2127 21.0267 13.2127 20.3867 13.5993 20.0001L17.5993 16.0001L13.5993 12.0001C13.2127 11.6134 13.2127 10.9734 13.5993 10.5867C13.986 10.2001 14.626 10.2001 15.0127 10.5867L19.7193 15.2934C20.1193 15.6801 20.1193 16.3201 19.7193 16.7067Z" fill="#F6F6F6"/>
</g>
<defs>
<clipPath id="clip0_3385_58564">
<rect width="32" height="32" rx="16" fill="white"/>
</clipPath>
</defs>
</svg>
