<svg width="55" height="40" viewBox="0 0 55 40" fill="none" xmlns="http://www.w3.org/2000/svg">
<g clip-path="url(#clip0_4209_2686)">
<path d="M49.7391 27.0434H46.8454V28.3333H49.6328C50.811 28.3333 51.5625 27.5132 51.5625 26.3412C51.5625 25.1692 50.9188 24.5833 49.8469 24.5833H48.5595C48.2391 24.5833 48.025 24.3492 48.025 23.9973C48.025 23.6453 48.2391 23.4113 48.561 23.4113H51.0266L51.5625 22.1214H48.6672C47.4891 22.1214 46.7391 22.9415 46.7391 23.9973C46.7391 25.1692 47.3828 25.7552 48.4532 25.7552H49.7406C50.061 25.7552 50.2751 25.9893 50.2751 26.3412C50.3828 26.8094 50.1688 27.0434 49.7391 27.0434ZM44.4875 27.0434H41.5938V28.3333H44.3813C45.5594 28.3333 46.3094 27.5132 46.3094 26.3412C46.3094 25.1692 45.6657 24.5833 44.5953 24.5833H43.3079C42.9875 24.5833 42.7734 24.3492 42.7734 23.9973C42.7734 23.6453 42.9875 23.4113 43.3094 23.4113H45.7735L46.3094 22.1214H43.4157C42.2375 22.1214 41.4875 22.9415 41.4875 23.9973C41.4875 25.1692 42.1312 25.7552 43.2016 25.7552H44.489C44.8094 25.7552 45.0235 25.9893 45.0235 26.3412C45.1313 26.8094 44.8094 27.0434 44.4875 27.0434ZM40.736 23.2951V22.0052H36.2344V28.2154H40.736V26.9272H37.5219V25.6374H40.6312V24.3492H37.5219V23.1772H40.736V23.2951ZM33.4484 23.2951C33.9844 23.2951 34.1985 23.6453 34.1985 23.9973C34.1985 24.3492 33.9844 24.7011 33.4484 24.7011H31.8406V23.1772L33.4484 23.2951ZM31.8406 25.9893H32.4844L34.1985 28.2154H35.8063L33.8766 25.8714C34.8422 25.6374 35.3781 24.9352 35.3781 23.9973C35.3781 22.8253 34.6266 22.0052 33.4469 22.0052H30.4469V28.2154H31.7343L31.8406 25.9893ZM28.4109 24.1135C28.4109 24.5833 28.1969 24.9352 27.6609 24.9352H25.9453V23.2934H27.5531C28.0891 23.2934 28.4109 23.6453 28.4109 24.1135ZM24.6594 22.0052V28.2154H25.9468V26.1055H27.6609C28.8391 26.1055 29.6969 25.2871 29.6969 23.9973C29.6969 22.8253 28.9469 21.8874 27.7672 21.8874L24.6594 22.0052ZM22.7297 28.2154H24.3375L22.0875 25.0514L24.3375 22.0052H22.7312L21.339 23.9973L19.9452 22.0052H18.3374L20.589 25.0514L18.3374 28.0992H19.9452L21.3375 26.1072L22.7297 28.2154ZM17.9078 23.2934V22.0052H13.4047V28.2154H17.9063V26.9272H14.6922V25.6374H17.8V24.3492H14.6922V23.1772H17.9078V23.2934ZM43.9516 15.7934L46.2031 19.5434H47.8109V13.3333H46.5235V17.4335L46.2031 16.8475L44.1672 13.3333H42.4516V19.5434H43.739V15.3253L43.9516 15.7934ZM38.3782 15.6772L38.8078 14.3874L39.236 15.6772L39.7719 17.0833H37.8422L38.3782 15.6772ZM40.6297 19.5434H42.0219L39.5578 13.3333H37.8422L35.3781 19.5434H36.7704L37.3063 18.2552H40.0938L40.6297 19.5434ZM34.6266 19.5434L35.1625 18.2552H34.8422C33.8766 18.2552 33.3407 17.5514 33.3407 16.4973V16.3794C33.3407 15.3253 33.8766 14.6214 34.8422 14.6214H36.2344V13.3333H34.7344C33.0203 13.3333 32.0547 14.6214 32.0547 16.3794V16.4973C32.0547 18.3714 33.0203 19.5434 34.6266 19.5434ZM29.8047 19.5434H31.0906V13.4495H29.8032L29.8047 19.5434ZM27.0172 14.6214C27.5531 14.6214 27.7672 14.9734 27.7672 15.3253C27.7672 15.6772 27.5531 16.0291 27.0187 16.0291H25.4094V14.5036L27.0172 14.6214ZM25.4109 17.319H26.0546L27.7687 19.5451H29.3765L27.4469 17.1995C28.4109 16.9654 28.9469 16.2632 28.9469 15.3253C28.9469 14.1533 28.1969 13.3333 27.0172 13.3333H24.0187V19.5434H25.3046L25.4109 17.319ZM23.0531 14.6231V13.3349H18.5515V19.5451H23.0531V18.2569H19.8375V16.967H22.9468V15.6788H19.8375V14.5036H23.0531V14.6198V14.6231ZM13.2999 19.5451H14.4796L16.0859 14.5069V19.5451H17.3733V13.3333H15.2296L13.9422 17.5514L12.6562 13.3333H10.511V19.5434H11.7984V14.5052L13.2984 19.5434L13.2999 19.5451ZM6.33126 15.6772L6.7609 14.3874L7.18906 15.6772L7.72499 17.0833H5.79532L6.33126 15.6772ZM8.58279 19.5434H9.97503L7.51092 13.3333H5.90311L3.4375 19.5434H4.82974L5.36717 18.2552H8.15314L8.58279 19.5434Z" fill="#2F6DC9"/>
</g>
<defs>
<clipPath id="clip0_4209_2686">
<rect width="55" height="40" rx="4" fill="white"/>
</clipPath>
</defs>
</svg>
