<svg width="32" height="32" viewBox="0 0 32 32" fill="none" xmlns="http://www.w3.org/2000/svg">
<g clip-path="url(#clip0_3385_58563)">
<path d="M15.9993 2.66675C8.65268 2.66675 2.66602 8.65341 2.66602 16.0001C2.66602 23.3467 8.65268 29.3334 15.9993 29.3334C23.346 29.3334 29.3327 23.3467 29.3327 16.0001C29.3327 8.65341 23.346 2.66675 15.9993 2.66675ZM18.386 20.0001C18.7727 20.3867 18.7727 21.0267 18.386 21.4134C18.186 21.6134 17.9327 21.7067 17.6793 21.7067C17.426 21.7067 17.1727 21.6134 16.9727 21.4134L12.266 16.7067C11.8793 16.3201 11.8793 15.6801 12.266 15.2934L16.9727 10.5867C17.3593 10.2001 17.9993 10.2001 18.386 10.5867C18.7727 10.9734 18.7727 11.6134 18.386 12.0001L14.386 16.0001L18.386 20.0001Z" fill="#F6F6F6"/>
</g>
<defs>
<clipPath id="clip0_3385_58563">
<rect width="32" height="32" rx="16" fill="white"/>
</clipPath>
</defs>
</svg>
