<svg width="55" height="40" viewBox="0 0 55 40" fill="none" xmlns="http://www.w3.org/2000/svg">
<g clip-path="url(#clip0_4209_2687)">
<path d="M21.4727 29.4094C26.6871 29.4094 30.9142 25.0645 30.9142 19.7047C30.9142 14.3449 26.6871 10 21.4727 10C16.2584 10 12.0312 14.3449 12.0312 19.7047C12.0312 25.0645 16.2584 29.4094 21.4727 29.4094Z" fill="#D82F2C"/>
<path d="M34.0606 29.4094C39.275 29.4094 43.5021 25.0645 43.5021 19.7047C43.5021 14.3449 39.275 10 34.0606 10C28.8462 10 24.6191 14.3449 24.6191 19.7047C24.6191 25.0645 28.8462 29.4094 34.0606 29.4094Z" fill="#EAA33F"/>
<path fill-rule="evenodd" clip-rule="evenodd" d="M27.7663 26.9387C29.6979 25.1616 30.9135 22.5792 30.9135 19.705C30.9135 16.8307 29.6979 14.2484 27.7663 12.4714C25.8347 14.2484 24.6191 16.8307 24.6191 19.705C24.6191 22.5792 25.8347 25.1616 27.7663 26.9387Z" fill="#ED6A2D"/>
</g>
<defs>
<clipPath id="clip0_4209_2687">
<rect width="55" height="40" rx="4" fill="white"/>
</clipPath>
</defs>
</svg>
