<svg width="140" height="24" viewBox="0 0 140 24" fill="none" xmlns="http://www.w3.org/2000/svg">
<g style="mix-blend-mode:luminosity">
<g clip-path="url(#clip0_4209_5349)">
<path d="M36 0H68V24H36V0Z" fill="white"/>
<path d="M64.4444 0H39.5556C37.5919 0 36 1.79086 36 4V20C36 22.2091 37.5919 24 39.5556 24H64.4444C66.4081 24 68 22.2091 68 20V4C68 1.79086 66.4081 0 64.4444 0Z" fill="white"/>
<path d="M64.4434 0.499756H39.5545C37.8363 0.499756 36.4434 2.06676 36.4434 3.99976V19.9998C36.4434 21.9328 37.8363 23.4998 39.5545 23.4998H64.4434C66.1616 23.4998 67.5545 21.9328 67.5545 19.9998V3.99976C67.5545 2.06676 66.1616 0.499756 64.4434 0.499756Z" stroke="#333333" stroke-opacity="0.07" stroke-width="0.970471"/>
<path d="M64.9391 16.2261H63.2555V17H64.8773C65.5628 17 66 16.508 66 15.8048C66 15.1016 65.6255 14.75 65.0018 14.75H64.2528C64.0664 14.75 63.9418 14.6096 63.9418 14.3984C63.9418 14.1873 64.0664 14.0468 64.2536 14.0468H65.6882L66 13.2729H64.3155C63.63 13.2729 63.1936 13.765 63.1936 14.3984C63.1936 15.1016 63.5682 15.4532 64.1909 15.4532H64.94C65.1264 15.4532 65.2509 15.5936 65.2509 15.8048C65.3137 16.0857 65.1891 16.2261 64.9391 16.2261ZM61.8837 16.2261H60.2V17H61.8218C62.5073 17 62.9437 16.508 62.9437 15.8048C62.9437 15.1016 62.5691 14.75 61.9464 14.75H61.1973C61.0109 14.75 60.8864 14.6096 60.8864 14.3984C60.8864 14.1873 61.0109 14.0468 61.1982 14.0468H62.6318L62.9437 13.2729H61.26C60.5745 13.2729 60.1382 13.765 60.1382 14.3984C60.1382 15.1016 60.5127 15.4532 61.1355 15.4532H61.8845C62.0709 15.4532 62.1955 15.5936 62.1955 15.8048C62.2582 16.0857 62.0709 16.2261 61.8837 16.2261ZM59.7009 13.9771V13.2032H57.0818V16.9293H59.7009V16.1564H57.8309V15.3825H59.64V14.6096H57.8309V13.9064H59.7009V13.9771ZM55.4609 13.9771C55.7727 13.9771 55.8973 14.1873 55.8973 14.3984C55.8973 14.6096 55.7727 14.8207 55.4609 14.8207H54.5255V13.9064L55.4609 13.9771ZM54.5255 15.5936H54.9L55.8973 16.9293H56.8327L55.71 15.5229C56.2718 15.3825 56.5836 14.9612 56.5836 14.3984C56.5836 13.6952 56.1464 13.2032 55.46 13.2032H53.7146V16.9293H54.4636L54.5255 15.5936ZM52.53 14.4681C52.53 14.75 52.4054 14.9612 52.0936 14.9612H51.0955V13.9761H52.0309C52.3427 13.9761 52.53 14.1873 52.53 14.4681ZM50.3473 13.2032V16.9293H51.0963V15.6634H52.0936C52.7791 15.6634 53.2782 15.1723 53.2782 14.3984C53.2782 13.6952 52.8418 13.1325 52.1555 13.1325L50.3473 13.2032ZM49.2246 16.9293H50.16L48.8509 15.0309L50.16 13.2032H49.2254L48.4154 14.3984L47.6045 13.2032H46.6691L47.979 15.0309L46.6691 16.8596H47.6045L48.4145 15.6643L49.2246 16.9293ZM46.4191 13.9761V13.2032H43.7991V16.9293H46.4182V16.1564H44.5482V15.3825H46.3564V14.6096H44.5482V13.9064H46.4191V13.9761ZM61.5718 9.4761L62.8818 11.7261H63.8173V8H63.0682V10.4602L62.8818 10.1086L61.6973 8H60.6991V11.7261H61.4482V9.19522L61.5718 9.4761ZM58.3291 9.40637L58.5791 8.63248L58.8282 9.40637L59.14 10.25H58.0173L58.3291 9.40637ZM59.6391 11.7261H60.4491L59.0155 8H58.0173L56.5836 11.7261H57.3937L57.7055 10.9532H59.3273L59.6391 11.7261ZM56.1464 11.7261L56.4582 10.9532H56.2718C55.71 10.9532 55.3982 10.5309 55.3982 9.89841V9.8277C55.3982 9.19522 55.71 8.77292 56.2718 8.77292H57.0818V8H56.2091C55.2118 8 54.65 8.77292 54.65 9.8277V9.89841C54.65 11.0229 55.2118 11.7261 56.1464 11.7261ZM53.3409 11.7261H54.0891V8.06973H53.34L53.3409 11.7261ZM51.7191 8.77292C52.0309 8.77292 52.1555 8.98407 52.1555 9.19522C52.1555 9.40637 52.0309 9.61752 51.72 9.61752H50.7837V8.7022L51.7191 8.77292ZM50.7845 10.3914H51.1591L52.1563 11.7271H53.0918L51.9691 10.3197C52.53 10.1793 52.8418 9.75797 52.8418 9.19522C52.8418 8.49203 52.4054 8 51.7191 8H49.9745V11.7261H50.7227L50.7845 10.3914ZM49.4127 8.7739V8.00098H46.7936V11.7271H49.4127V10.9542H47.5418V10.1803H49.3509V9.40736H47.5418V8.7022H49.4127V8.77193V8.7739ZM43.7381 11.7271H44.4245L45.3591 8.70417V11.7271H46.1081V8H44.8609L44.1118 10.5309L43.3636 8H42.1155V11.7261H42.8645V8.70319L43.7373 11.7261L43.7381 11.7271ZM39.6836 9.40637L39.9336 8.63248L40.1827 9.40637L40.4945 10.25H39.3718L39.6836 9.40637ZM40.9936 11.7261H41.8037L40.37 8H39.4345L38 11.7261H38.81L39.1227 10.9532H40.7436L40.9936 11.7261Z" fill="#2F6DC9"/>
</g>
</g>
<g style="mix-blend-mode:luminosity">
<g clip-path="url(#clip1_4209_5349)">
<path d="M72 0H104V24H72V0Z" fill="white"/>
<path d="M100.444 0H75.5556C73.5919 0 72 1.79086 72 4V20C72 22.2091 73.5919 24 75.5556 24H100.444C102.408 24 104 22.2091 104 20V4C104 1.79086 102.408 0 100.444 0Z" fill="white"/>
<path d="M100.443 0.499756H75.5545C73.8363 0.499756 72.4434 2.06676 72.4434 3.99976V19.9998C72.4434 21.9328 73.8363 23.4998 75.5545 23.4998H100.443C102.162 23.4998 103.554 21.9328 103.554 19.9998V3.99976C103.554 2.06676 102.162 0.499756 100.443 0.499756Z" stroke="#333333" stroke-opacity="0.07" stroke-width="0.970471"/>
<path d="M85.7096 9.11646L83.047 15.803H81.2935L80.0039 10.5139C79.9935 10.3884 79.9521 10.2679 79.8838 10.1641C79.8155 10.0604 79.7226 9.97691 79.6143 9.92195C79.1 9.66429 78.558 9.47207 78 9.34937V9.15528H80.7833C80.9674 9.15755 81.1449 9.228 81.2842 9.35413C81.4234 9.48027 81.5155 9.65393 81.544 9.84431L82.2306 13.7262L83.9376 9.17468L85.7096 9.11646ZM92.51 13.6194C92.51 11.8629 90.1906 11.7658 90.2092 10.97C90.2092 10.7371 90.4318 10.4751 90.905 10.4169C91.4614 10.358 92.0226 10.4586 92.5285 10.708L92.8161 9.29114C92.3226 9.10226 91.8016 9.00378 91.2761 9C89.6525 9 88.4928 9.90254 88.4928 11.2126C88.4928 12.1831 89.3093 12.7072 89.9309 13.0274C90.5524 13.3477 90.7844 13.5709 90.7844 13.862C90.7844 14.3084 90.2741 14.5025 89.801 14.5122C89.2131 14.5284 88.6313 14.3847 88.1125 14.0949L87.7878 15.5603C88.3796 15.7984 89.0091 15.917 89.6432 15.9097C91.3689 15.9097 92.4914 15.0169 92.5007 13.6194H92.51ZM96.7869 15.803H98.2991L96.9817 9.11646H95.5901C95.4388 9.11629 95.291 9.16329 95.1654 9.25145C95.0398 9.33961 94.9422 9.46492 94.885 9.6114L92.4265 15.803H94.1521L94.4861 14.8325H96.5921L96.7869 15.803ZM94.9314 13.435L95.8035 10.9312L96.323 13.4253L94.9314 13.435ZM88.029 9.11646L86.6745 15.803H85.0602L86.4147 9.11646H88.029Z" fill="#1434CB"/>
</g>
</g>
<g style="mix-blend-mode:luminosity">
<g clip-path="url(#clip2_4209_5349)">
<path d="M108 0H140V24H108V0Z" fill="white"/>
<path d="M136.444 0H111.556C109.592 0 108 1.79086 108 4V20C108 22.2091 109.592 24 111.556 24H136.444C138.408 24 140 22.2091 140 20V4C140 1.79086 138.408 0 136.444 0Z" fill="white"/>
<path d="M136.443 0.499756H111.554C109.836 0.499756 108.443 2.06676 108.443 3.99976V19.9998C108.443 21.9328 109.836 23.4998 111.554 23.4998H136.443C138.162 23.4998 139.554 21.9328 139.554 19.9998V3.99976C139.554 2.06676 138.162 0.499756 136.443 0.499756Z" stroke="#333333" stroke-opacity="0.07" stroke-width="0.970471"/>
<path d="M120.493 17.6457C123.527 17.6457 125.986 15.0387 125.986 11.8228C125.986 8.60697 123.527 6 120.493 6C117.459 6 115 8.60697 115 11.8228C115 15.0387 117.459 17.6457 120.493 17.6457Z" fill="#D82F2C"/>
<path d="M127.817 17.6457C130.851 17.6457 133.311 15.0387 133.311 11.8228C133.311 8.60697 130.851 6 127.817 6C124.784 6 122.324 8.60697 122.324 11.8228C122.324 15.0387 124.784 17.6457 127.817 17.6457Z" fill="#EAA33F"/>
<path fill-rule="evenodd" clip-rule="evenodd" d="M124.155 16.1633C125.279 15.097 125.986 13.5475 125.986 11.823C125.986 10.0985 125.279 8.54911 124.155 7.48291C123.031 8.54911 122.324 10.0985 122.324 11.823C122.324 13.5475 123.031 15.097 124.155 16.1633Z" fill="#ED6A2D"/>
</g>
</g>
<g style="mix-blend-mode:luminosity">
<g clip-path="url(#clip3_4209_5349)">
<path d="M0 0H32V24H0V0Z" fill="white"/>
<path d="M28.4444 0H3.55556C1.59188 0 0 1.79086 0 4V20C0 22.2091 1.59188 24 3.55556 24H28.4444C30.4081 24 32 22.2091 32 20V4C32 1.79086 30.4081 0 28.4444 0Z" fill="white"/>
<path d="M28.4434 0.499756H3.55447C1.83625 0.499756 0.443359 2.06676 0.443359 3.99976V19.9998C0.443359 21.9328 1.83625 23.4998 3.55447 23.4998H28.4434C30.1616 23.4998 31.5545 21.9328 31.5545 19.9998V3.99976C31.5545 2.06676 30.1616 0.499756 28.4434 0.499756Z" stroke="#333333" stroke-opacity="0.07" stroke-width="0.970471"/>
<path d="M7.12246 8.61209C6.90583 8.40211 6.64624 8.24163 6.36157 8.14171C6.07691 8.0418 5.77395 8.00484 5.47362 8.03336H3.28972C3.21339 8.03485 3.13999 8.06293 3.08217 8.11277C3.02435 8.16262 2.98575 8.23108 2.97305 8.30635L2.00122 14.0718C1.99813 14.0994 2.00093 14.1274 2.00941 14.1538C2.01789 14.1802 2.03188 14.2045 2.05046 14.2251C2.06902 14.2458 2.09175 14.2622 2.11714 14.2735C2.14253 14.2847 2.17001 14.2904 2.19777 14.2902H3.28972C3.35504 14.2874 3.41803 14.2651 3.47057 14.2262C3.52311 14.1872 3.5628 14.1335 3.58455 14.0718L3.82477 12.4994C3.83289 12.4242 3.86864 12.3545 3.92512 12.3042C3.98161 12.2537 4.05479 12.226 4.13052 12.2264H4.84029C5.15424 12.2627 5.47231 12.2341 5.77469 12.1421C6.07708 12.0502 6.35733 11.8971 6.59801 11.6922C6.83869 11.4874 7.03466 11.2353 7.17373 10.9515C7.31279 10.6677 7.39197 10.3583 7.40637 10.0425C7.46789 9.79793 7.47433 9.54277 7.42522 9.2954C7.37613 9.04803 7.27272 8.81464 7.12246 8.61209ZM5.73568 10.1299C5.61557 10.9379 4.99316 10.9379 4.40351 10.9379H4.065L4.29431 9.42014C4.30178 9.37569 4.3243 9.33516 4.35809 9.30534C4.39189 9.27553 4.43491 9.25822 4.47994 9.25634H4.63282C5.03684 9.25634 5.42994 9.25634 5.61557 9.48565C5.68354 9.57669 5.72972 9.68212 5.75055 9.79378C5.77137 9.90548 5.76628 10.0205 5.73568 10.1299Z" fill="#253B80"/>
<path d="M12.2212 10.0965H11.1292C11.0848 10.0989 11.0421 10.1149 11.0071 10.1423C10.9719 10.1696 10.9459 10.2069 10.9327 10.2494V10.5661L10.8563 10.446C10.6909 10.2797 10.4901 10.1529 10.2689 10.0753C10.0476 9.99782 9.81159 9.9714 9.57868 9.99826C8.98127 10.0121 8.40876 10.2403 7.96576 10.6413C7.52272 11.0423 7.23866 11.5891 7.16544 12.1822C7.11021 12.4734 7.11768 12.773 7.18734 13.0611C7.25701 13.3491 7.38728 13.6191 7.56946 13.8528C7.74027 14.042 7.95211 14.1894 8.18863 14.284C8.42525 14.3787 8.68033 14.4179 8.93443 14.3988C9.21124 14.4018 9.48586 14.3481 9.74127 14.2411C9.99657 14.134 10.2274 13.9759 10.4195 13.7764V14.0931C10.4163 14.1435 10.4328 14.1932 10.4652 14.2317C10.4978 14.2704 10.544 14.2951 10.5942 14.3005H11.566C11.6419 14.304 11.7164 14.2791 11.7749 14.2306C11.8334 14.1823 11.8719 14.1137 11.8827 14.0385L12.4614 10.3149C12.4737 10.2822 12.4758 10.2466 12.4676 10.2125C12.4595 10.1785 12.4412 10.1477 12.4153 10.1243C12.3895 10.1008 12.3571 10.0855 12.3225 10.0806C12.2879 10.0757 12.2525 10.0812 12.2212 10.0965ZM9.49132 13.2523C9.35778 13.2597 9.22434 13.2381 9.09997 13.1891C8.97548 13.1401 8.86323 13.0648 8.77063 12.9684C8.69081 12.8575 8.63425 12.7317 8.60422 12.5985C8.57419 12.4653 8.57135 12.3274 8.59592 12.1931C8.63043 11.8948 8.7726 11.6193 8.99568 11.4182C9.21888 11.2172 9.50759 11.1045 9.80799 11.1011C9.94328 11.095 10.0782 11.1193 10.2031 11.1722C10.3278 11.2251 10.439 11.3053 10.5287 11.4069C10.618 11.5105 10.6813 11.6338 10.7136 11.7667C10.746 11.8996 10.7462 12.0382 10.7143 12.1712C10.6817 12.4714 10.5383 12.7485 10.312 12.9485C10.0858 13.1484 9.79314 13.2567 9.49132 13.2523Z" fill="#253B80"/>
<path d="M17.9661 10.0966H16.8741C16.822 10.0959 16.7705 10.1087 16.7246 10.1335C16.6788 10.1584 16.64 10.1946 16.612 10.2386L15.1161 12.4225L14.4827 10.2932C14.4622 10.2277 14.4217 10.1704 14.3668 10.1294C14.312 10.0882 14.2456 10.0653 14.177 10.0638H13.0851C13.055 10.0637 13.0253 10.0708 12.9986 10.0847C12.9718 10.0986 12.9489 10.1188 12.9317 10.1434C12.9145 10.1682 12.9036 10.1967 12.8999 10.2267C12.8961 10.2565 12.8997 10.2868 12.9103 10.315L14.1006 13.8529L13.0086 15.4472C12.9884 15.4751 12.9763 15.5081 12.9737 15.5425C12.9711 15.5768 12.9781 15.6113 12.994 15.6418C13.0098 15.6724 13.0339 15.6981 13.0635 15.7158C13.0931 15.7335 13.1271 15.7425 13.1615 15.742H14.2534C14.3048 15.7449 14.356 15.7343 14.4019 15.7114C14.4479 15.6884 14.4871 15.6537 14.5155 15.6109L18.1189 10.3587C18.1314 10.3317 18.1371 10.302 18.1355 10.2723C18.134 10.2426 18.1255 10.2138 18.1105 10.188C18.0955 10.1623 18.0746 10.1406 18.0495 10.1248C18.0243 10.1088 17.9958 10.0992 17.9661 10.0966Z" fill="#253B80"/>
<path d="M23.2076 8.61168C22.9906 8.4023 22.7309 8.24221 22.4463 8.14234C22.1618 8.04246 21.8591 8.00514 21.5588 8.03294H19.2985C19.2239 8.03274 19.152 8.06078 19.0973 8.11143C19.0426 8.16209 19.0091 8.23158 19.0036 8.30593L18.0755 14.0714C18.0723 14.099 18.0751 14.127 18.0837 14.1534C18.0921 14.1798 18.1062 14.2042 18.1247 14.2248C18.1433 14.2453 18.166 14.2618 18.1913 14.2731C18.2168 14.2843 18.2442 14.29 18.272 14.2898H19.4295C19.4819 14.2875 19.5317 14.2663 19.5698 14.2301C19.6079 14.1941 19.6317 14.1455 19.637 14.0932L19.899 12.4444C19.9093 12.37 19.9458 12.3018 20.0018 12.2518C20.0577 12.2017 20.1296 12.1734 20.2048 12.1714H20.9255C21.2389 12.2045 21.5556 12.1735 21.8567 12.0803C22.1577 11.9872 22.4367 11.8339 22.6766 11.6297C22.9166 11.4254 23.1126 11.1745 23.2527 10.8923C23.3927 10.61 23.474 10.3022 23.4915 9.98749C23.54 9.75097 23.5398 9.50694 23.491 9.27041C23.4422 9.03387 23.3458 8.80975 23.2076 8.61168ZM21.8099 10.1622C21.7007 10.9702 21.0783 10.9702 20.4778 10.9702H20.1393L20.3795 9.45248C20.3808 9.42951 20.3868 9.40705 20.3968 9.38638C20.4069 9.36572 20.421 9.34725 20.4382 9.33202C20.4555 9.3168 20.4756 9.30514 20.4973 9.2977C20.5191 9.29027 20.5421 9.2872 20.5651 9.28869H20.7289C21.1329 9.28869 21.5151 9.28869 21.7117 9.51799C21.7711 9.60684 21.8106 9.70751 21.8275 9.81299C21.8446 9.91859 21.8386 10.0265 21.8099 10.1294V10.1622Z" fill="#179BD7"/>
<path d="M28.2947 10.0971H27.2027C27.1573 10.0959 27.113 10.1105 27.0771 10.1383C27.0413 10.1663 27.0162 10.2056 27.0062 10.2499V10.5666L26.9297 10.4465C26.767 10.2796 26.5683 10.1524 26.3486 10.0748C26.1289 9.99714 25.8943 9.97115 25.6631 9.99878C25.0657 10.0126 24.4932 10.2409 24.0502 10.6417C23.6072 11.0427 23.323 11.5896 23.2499 12.1827C23.1886 12.4737 23.1931 12.7746 23.2631 13.0637C23.333 13.3527 23.4664 13.6224 23.6539 13.8534C23.8219 14.0428 24.0317 14.1908 24.2667 14.2855C24.5016 14.3802 24.7553 14.4192 25.0079 14.3993C25.2864 14.4018 25.5624 14.348 25.8194 14.241C26.0766 14.1341 26.3094 13.9762 26.5039 13.7769V14.0936C26.5007 14.1197 26.5032 14.1462 26.5112 14.1713C26.5191 14.1964 26.5323 14.2196 26.5498 14.2391C26.5674 14.2588 26.5889 14.2744 26.613 14.2851C26.6371 14.2958 26.6632 14.3012 26.6895 14.3011H27.6613C27.7354 14.3018 27.8072 14.2756 27.8635 14.2275C27.9197 14.1792 27.9565 14.1123 27.9671 14.039L28.5021 10.3154C28.5076 10.2865 28.5061 10.2567 28.4978 10.2285C28.4895 10.2002 28.4745 10.1745 28.4543 10.1531C28.434 10.1318 28.409 10.1156 28.3813 10.1058C28.3534 10.0961 28.3238 10.093 28.2947 10.0971ZM25.5757 13.2528C25.4404 13.261 25.3051 13.2399 25.1788 13.1909C25.0526 13.1418 24.9383 13.0662 24.8441 12.9689C24.7639 12.8584 24.7078 12.7323 24.6796 12.5987C24.6514 12.4651 24.6516 12.327 24.6803 12.1936C24.71 11.8953 24.8492 11.6185 25.071 11.4168C25.2929 11.2151 25.5816 11.1028 25.8815 11.1016C26.0205 11.0894 26.1603 11.111 26.2891 11.1648C26.4179 11.2185 26.5317 11.3027 26.6208 11.41C26.7099 11.5173 26.7717 11.6448 26.8008 11.7813C26.8298 11.9177 26.8253 12.0592 26.7878 12.1936C26.755 12.4898 26.6123 12.763 26.3879 12.9592C26.1635 13.1553 25.8736 13.26 25.5757 13.2528Z" fill="#179BD7"/>
<path d="M30.7966 8.00043H29.7047C29.66 7.9973 29.6159 8.0114 29.5814 8.03985C29.5468 8.06829 29.5245 8.1089 29.519 8.1533L28.6455 14.0717C28.6407 14.0987 28.6419 14.1264 28.649 14.1528C28.6561 14.1792 28.6689 14.2038 28.6867 14.2247C28.7044 14.2455 28.7266 14.2622 28.7516 14.2736C28.7765 14.2848 28.8037 14.2905 28.8311 14.2901H29.7593C29.8333 14.2908 29.9051 14.2646 29.9614 14.2165C30.0176 14.1682 30.0544 14.1013 30.065 14.028L30.9822 8.2079C30.9853 8.18176 30.9828 8.15525 30.9749 8.13014C30.967 8.10504 30.9537 8.0819 30.9363 8.06228C30.9187 8.04265 30.8972 8.027 30.873 8.01634C30.849 8.00567 30.8229 8.00025 30.7966 8.00043Z" fill="#179BD7"/>
</g>
</g>
<defs>
<clipPath id="clip0_4209_5349">
<rect x="36" width="32" height="24" rx="4" fill="white"/>
</clipPath>
<clipPath id="clip1_4209_5349">
<rect x="72" width="32" height="24" rx="4" fill="white"/>
</clipPath>
<clipPath id="clip2_4209_5349">
<rect x="108" width="32" height="24" rx="4" fill="white"/>
</clipPath>
<clipPath id="clip3_4209_5349">
<rect width="32" height="24" rx="4" fill="white"/>
</clipPath>
</defs>
</svg>
