<svg width="55" height="40" viewBox="0 0 55 40" fill="none" xmlns="http://www.w3.org/2000/svg">
<g clip-path="url(#clip0_4209_2685)">
<path d="M12.2417 14.3534C11.8694 14.0034 11.4232 13.736 10.9339 13.5695C10.4447 13.4029 9.92397 13.3413 9.40778 13.3889H5.65421C5.52302 13.3913 5.39686 13.4381 5.29749 13.5212C5.19811 13.6043 5.13176 13.7184 5.10994 13.8438L3.4396 23.453C3.43429 23.499 3.43909 23.5456 3.45367 23.5896C3.46826 23.6337 3.4923 23.6741 3.52422 23.7085C3.55613 23.7429 3.5952 23.7703 3.63884 23.7891C3.68247 23.8078 3.72971 23.8173 3.77742 23.8169H5.65421C5.76647 23.8122 5.87475 23.7751 5.96504 23.7103C6.05535 23.6453 6.12357 23.5558 6.16094 23.453L6.57383 20.8323C6.58778 20.7069 6.64922 20.5908 6.74631 20.5069C6.84339 20.4228 6.96918 20.3766 7.09933 20.3773H8.31924C8.85886 20.4377 9.40553 20.39 9.92525 20.2368C10.445 20.0836 10.9267 19.8284 11.3403 19.487C11.754 19.1456 12.0908 18.7254 12.3298 18.2524C12.5689 17.7794 12.705 17.2638 12.7297 16.7375C12.8354 16.3298 12.8465 15.9045 12.7621 15.4923C12.6777 15.08 12.5 14.691 12.2417 14.3534ZM9.85821 16.8831C9.65176 18.2298 8.58199 18.2298 7.56853 18.2298H6.98672L7.38085 15.7002C7.39369 15.6261 7.43239 15.5585 7.49047 15.5088C7.54856 15.4591 7.6225 15.4303 7.6999 15.4272H7.96265C8.65706 15.4272 9.33271 15.4272 9.65176 15.8093C9.76859 15.9611 9.84796 16.1368 9.88375 16.3229C9.91954 16.5091 9.91079 16.7007 9.85821 16.8831Z" fill="#253B80"/>
<path d="M21.0063 16.8275H19.1295C19.0531 16.8315 18.9797 16.8581 18.9195 16.9038C18.859 16.9493 18.8144 17.0115 18.7917 17.0823V17.6101L18.6603 17.4099C18.3761 17.1327 18.031 16.9214 17.6508 16.7922C17.2703 16.663 16.8648 16.6189 16.4644 16.6637C15.4377 16.6868 14.4537 17.0672 13.6922 17.7355C12.9308 18.4037 12.4426 19.3151 12.3167 20.3035C12.2218 20.7889 12.2346 21.2883 12.3543 21.7684C12.4741 22.2485 12.698 22.6984 13.0111 23.088C13.3047 23.4032 13.6688 23.6489 14.0753 23.8067C14.482 23.9645 14.9204 24.0298 15.3571 23.998C15.8329 24.0029 16.3049 23.9135 16.7439 23.7352C17.1827 23.5566 17.5794 23.2931 17.9096 22.9606V23.4884C17.9041 23.5725 17.9325 23.6553 17.9882 23.7195C18.0441 23.7839 18.1235 23.8251 18.2099 23.8342H19.8802C20.0106 23.84 20.1386 23.7985 20.2392 23.7177C20.3398 23.6371 20.4059 23.5228 20.4245 23.3974L21.4192 17.1915C21.4402 17.1369 21.4439 17.0776 21.4299 17.0208C21.4158 16.9642 21.3844 16.9129 21.34 16.8737C21.2955 16.8346 21.2399 16.8091 21.1804 16.8009C21.1209 16.7927 21.0601 16.802 21.0063 16.8275ZM16.3143 22.0871C16.0848 22.0994 15.8554 22.0634 15.6417 21.9819C15.4277 21.9002 15.2348 21.7746 15.0756 21.6139C14.9384 21.4292 14.8412 21.2195 14.7896 20.9975C14.738 20.7754 14.7331 20.5456 14.7753 20.3217C14.8346 19.8245 15.079 19.3654 15.4624 19.0303C15.846 18.6953 16.3423 18.5075 16.8586 18.5018C17.0911 18.4916 17.3231 18.532 17.5376 18.6203C17.7519 18.7084 17.9432 18.8422 18.0973 19.0114C18.2508 19.1841 18.3596 19.3896 18.4152 19.6111C18.4707 19.8325 18.4711 20.0637 18.4163 20.2853C18.3602 20.7856 18.1138 21.2475 17.7249 21.5808C17.336 21.914 16.833 22.0945 16.3143 22.0871Z" fill="#253B80"/>
<path d="M30.8779 16.8275H29.0012C28.9116 16.8265 28.8231 16.8477 28.7442 16.8891C28.6654 16.9306 28.5988 16.9908 28.5507 17.0641L25.9795 20.704L24.891 17.1551C24.8557 17.0461 24.7861 16.9506 24.6917 16.8821C24.5975 16.8135 24.4834 16.7753 24.3655 16.773H22.4887C22.4371 16.7728 22.3861 16.7846 22.3401 16.8077C22.2941 16.8308 22.2547 16.8645 22.2252 16.9056C22.1956 16.9469 22.1768 16.9944 22.1704 17.0443C22.164 17.094 22.1702 17.1446 22.1884 17.1915L24.2341 23.0881L22.3573 25.7451C22.3226 25.7917 22.3018 25.8467 22.2973 25.904C22.2928 25.9612 22.305 26.0187 22.3322 26.0696C22.3594 26.1206 22.4009 26.1633 22.4517 26.1928C22.5026 26.2223 22.561 26.2374 22.6201 26.2365H24.4969C24.5851 26.2414 24.6731 26.2238 24.7521 26.1855C24.8311 26.1471 24.8985 26.0895 24.9473 26.0181L31.1407 17.2643C31.1621 17.2194 31.1718 17.1699 31.1692 17.1204C31.1666 17.0709 31.152 17.0228 31.1262 16.9799C31.1003 16.9371 31.0645 16.9009 31.0213 16.8745C30.978 16.8479 30.929 16.8319 30.8779 16.8275Z" fill="#253B80"/>
<path d="M39.8875 14.3527C39.5144 14.0038 39.0681 13.7369 38.579 13.5705C38.0899 13.404 37.5697 13.3418 37.0536 13.3882H33.1686C33.0404 13.3878 32.9169 13.4346 32.8229 13.519C32.7289 13.6034 32.6713 13.7192 32.6619 13.8431L31.0666 23.4522C31.0612 23.4983 31.0661 23.5449 31.0807 23.5889C31.0951 23.6329 31.1194 23.6735 31.1513 23.7079C31.1832 23.7421 31.2222 23.7696 31.2657 23.7884C31.3095 23.8071 31.3566 23.8166 31.4044 23.8162H33.3938C33.4839 23.8124 33.5695 23.7771 33.635 23.7168C33.7005 23.6568 33.7414 23.5758 33.7504 23.4886L34.2008 20.7406C34.2185 20.6166 34.2812 20.5029 34.3775 20.4195C34.4735 20.3362 34.5972 20.2888 34.7263 20.2856H35.965C36.5037 20.3407 37.0481 20.289 37.5656 20.1338C38.083 19.9786 38.5625 19.723 38.9748 19.3827C39.3873 19.0422 39.7242 18.6242 39.965 18.1537C40.2056 17.6833 40.3453 17.1702 40.3755 16.6457C40.4588 16.2516 40.4584 15.8448 40.3745 15.4506C40.2906 15.0564 40.1249 14.6828 39.8875 14.3527ZM37.4852 16.9369C37.2975 18.2837 36.2278 18.2837 35.1955 18.2837H34.6137L35.0266 15.7541C35.0289 15.7158 35.0392 15.6783 35.0565 15.6439C35.0737 15.6095 35.098 15.5787 35.1276 15.5533C35.1573 15.5279 35.1918 15.5085 35.2291 15.4961C35.2667 15.4837 35.3061 15.4786 35.3457 15.4811H35.6272C36.3216 15.4811 36.9785 15.4811 37.3163 15.8633C37.4184 16.0113 37.4864 16.1791 37.5154 16.3549C37.5447 16.5309 37.5344 16.7107 37.4852 16.8823V16.9369Z" fill="#179BD7"/>
<path d="M48.6331 16.8284H46.7563C46.6782 16.8264 46.602 16.8508 46.5404 16.8972C46.4789 16.9438 46.4357 17.0093 46.4184 17.0832V17.6109L46.2871 17.4107C46.0074 17.1327 45.6659 16.9206 45.2882 16.7912C44.9106 16.6618 44.5075 16.6185 44.11 16.6646C43.0832 16.6877 42.0992 17.0681 41.3378 17.7361C40.5764 18.4044 40.088 19.316 39.9623 20.3044C39.857 20.7894 39.8647 21.291 39.985 21.7727C40.1051 22.2544 40.3345 22.704 40.6567 23.0889C40.9455 23.4046 41.3061 23.6512 41.71 23.8092C42.1137 23.967 42.5498 24.032 42.9839 23.9988C43.4625 24.003 43.937 23.9133 44.3788 23.7349C44.8207 23.5568 45.2209 23.2936 45.5551 22.9615V23.4893C45.5497 23.5328 45.554 23.577 45.5677 23.6188C45.5812 23.6607 45.6039 23.6993 45.6341 23.7319C45.6643 23.7646 45.7013 23.7906 45.7426 23.8085C45.7841 23.8263 45.8289 23.8352 45.8742 23.835H47.5445C47.6718 23.8363 47.7953 23.7926 47.8919 23.7124C47.9886 23.6319 48.0518 23.5204 48.07 23.3983L48.9896 17.1924C48.999 17.1441 48.9964 17.0944 48.9821 17.0475C48.9679 17.0004 48.9422 16.9574 48.9074 16.9217C48.8725 16.8862 48.8295 16.8593 48.7819 16.8429C48.734 16.8267 48.6832 16.8216 48.6331 16.8284ZM43.9599 22.0879C43.7273 22.1016 43.4948 22.0664 43.2776 21.9847C43.0607 21.903 42.8644 21.7769 42.7024 21.6147C42.5645 21.4306 42.4682 21.2204 42.4196 20.9978C42.3712 20.775 42.3715 20.545 42.4209 20.3226C42.4719 19.8254 42.7112 19.3641 43.0924 19.0279C43.4738 18.6918 43.97 18.5047 44.4854 18.5027C44.7243 18.4823 44.9647 18.5183 45.186 18.6079C45.4074 18.6974 45.603 18.8377 45.7561 19.0166C45.9093 19.1955 46.0155 19.4079 46.0654 19.6354C46.1153 19.8627 46.1076 20.0986 46.0431 20.3226C45.9868 20.8163 45.7415 21.2717 45.3558 21.5985C44.9701 21.9254 44.4718 22.0999 43.9599 22.0879Z" fill="#179BD7"/>
<path d="M52.9308 13.334H51.054C50.9772 13.3287 50.9014 13.3523 50.8421 13.3997C50.7826 13.4471 50.7443 13.5148 50.7349 13.5888L49.2335 23.4527C49.2252 23.4977 49.2273 23.5439 49.2395 23.5879C49.2517 23.632 49.2738 23.6729 49.3044 23.7077C49.3348 23.7425 49.3729 23.7703 49.4159 23.7892C49.4587 23.808 49.5054 23.8174 49.5525 23.8167H51.1478C51.2751 23.818 51.3985 23.7743 51.4952 23.694C51.5919 23.6136 51.6551 23.502 51.6733 23.3799L53.2498 13.6798C53.2551 13.6362 53.2507 13.592 53.2372 13.5502C53.2235 13.5083 53.2008 13.4698 53.1708 13.437C53.1406 13.4043 53.1036 13.3782 53.0621 13.3605C53.0208 13.3427 52.976 13.3337 52.9308 13.334Z" fill="#179BD7"/>
</g>
<defs>
<clipPath id="clip0_4209_2685">
<rect width="55" height="40" rx="4" fill="white"/>
</clipPath>
</defs>
</svg>
