<svg width="20" height="21" viewBox="0 0 20 21" fill="none" xmlns="http://www.w3.org/2000/svg">
<path d="M2.74987 19.4583C2.44987 19.4583 2.15819 19.3833 1.90819 19.2333C1.34986 18.9083 1.0332 18.2583 1.0332 17.45V7.98334C1.0332 6.20834 2.47486 4.76666 4.24986 4.76666H10.7332C12.5082 4.76666 13.9499 6.20834 13.9499 7.98334V17.45C13.9499 18.2583 13.6332 18.9 13.0749 19.2333C12.5165 19.5583 11.7999 19.525 11.0915 19.1333L7.81655 17.3083C7.65822 17.2167 7.32486 17.2167 7.16652 17.3083L3.89153 19.1333C3.5082 19.35 3.11653 19.4583 2.74987 19.4583ZM4.2582 6.025C3.17487 6.025 2.29154 6.90833 2.29154 7.99166V17.4583C2.29154 17.8 2.39154 18.0667 2.54988 18.1583C2.70821 18.25 2.99155 18.2083 3.29155 18.0417L6.56655 16.2167C7.09988 15.925 7.89987 15.925 8.43321 16.2167L11.7082 18.0417C12.0082 18.2083 12.2832 18.25 12.4499 18.1583C12.6082 18.0667 12.7082 17.8 12.7082 17.4583V7.99166C12.7082 6.90833 11.8249 6.025 10.7416 6.025H4.2582Z" fill="#F45E0C"/>
<path d="M12.241 19.4583C11.8744 19.4583 11.491 19.35 11.0994 19.1417L7.82436 17.3167C7.66603 17.2333 7.32433 17.2333 7.166 17.3167L3.89934 19.1417C3.19101 19.5333 2.46601 19.5667 1.91601 19.2417C1.35767 18.9167 1.04102 18.2666 1.04102 17.4666V7.99999C1.04102 6.22499 2.48267 4.78334 4.25767 4.78334H10.741C12.516 4.78334 13.9577 6.22499 13.9577 7.99999V17.4666C13.9577 18.2666 13.641 18.9167 13.0827 19.2417C12.8327 19.3833 12.5494 19.4583 12.241 19.4583ZM7.49935 16C7.83268 16 8.15768 16.075 8.43268 16.225L11.7077 18.05C12.0077 18.2167 12.291 18.2583 12.4494 18.1583C12.6077 18.0667 12.7077 17.8 12.7077 17.4583V7.99165C12.7077 6.90832 11.8244 6.025 10.741 6.025H4.25767C3.17434 6.025 2.29102 6.90832 2.29102 7.99165V17.4583C2.29102 17.8 2.39101 18.0667 2.54935 18.1583C2.70768 18.25 2.99103 18.2083 3.29103 18.0417L6.56602 16.2166C6.83269 16.075 7.16602 16 7.49935 16Z" fill="#F45E0C"/>
<path d="M17.241 16.225C16.8744 16.225 16.491 16.1167 16.0994 15.9083L13.0244 14.1917C12.8244 14.0833 12.7077 13.875 12.7077 13.65V7.99999C12.7077 6.91666 11.8244 6.03334 10.741 6.03334H6.66602C6.32435 6.03334 6.04102 5.75001 6.04102 5.40834V4.76666C6.04102 2.99166 7.48267 1.55 9.25767 1.55H15.741C17.516 1.55 18.9577 2.99166 18.9577 4.76666V14.2333C18.9577 15.0333 18.641 15.6833 18.0827 16.0083C17.8327 16.15 17.5494 16.225 17.241 16.225ZM13.9577 13.275L16.7077 14.8167C17.0077 14.9833 17.2827 15.025 17.4494 14.925C17.616 14.825 17.7077 14.5667 17.7077 14.225V4.75832C17.7077 3.67498 16.8244 2.79166 15.741 2.79166H9.25767C8.17434 2.79166 7.29102 3.67498 7.29102 4.75832V4.775H10.741C12.516 4.775 13.9577 6.21665 13.9577 7.99165V13.275Z" fill="#F45E0C"/>
</svg>
