<svg width="20" height="20" viewBox="0 0 20 20" fill="none" xmlns="http://www.w3.org/2000/svg">
<path fill-rule="evenodd" clip-rule="evenodd" d="M10 20C15.5228 20 20 15.5228 20 10C20 4.47715 15.5228 0 10 0C4.47715 0 0 4.47715 0 10C0 15.5228 4.47715 20 10 20ZM5.85156 10.8537V12.7784H6.80682V10.8537H8.73153V9.90199H6.80682V7.97727H5.85156V9.90199H3.9304V10.8537H5.85156ZM10.0668 13.2045V14H14.8537V13.0589H11.5795V13.0057L13.0249 11.4929C13.4676 11.0431 13.8132 10.6607 14.0618 10.3459C14.3104 10.0286 14.4844 9.741 14.5838 9.48295C14.6856 9.22491 14.7365 8.96094 14.7365 8.69105C14.7365 8.30043 14.6383 7.95005 14.4418 7.63991C14.2453 7.32741 13.9718 7.0812 13.6214 6.90128C13.2734 6.71899 12.871 6.62784 12.4141 6.62784C11.9619 6.62784 11.5582 6.72017 11.2031 6.90483C10.848 7.08712 10.5687 7.34399 10.3651 7.67543C10.1615 8.00687 10.0597 8.39394 10.0597 8.83665H11.1072C11.1072 8.57623 11.1593 8.34896 11.2635 8.15483C11.3677 7.9607 11.5168 7.81037 11.7109 7.70384C11.9051 7.5973 12.1323 7.54403 12.3928 7.54403C12.639 7.54403 12.8603 7.59257 13.0568 7.68963C13.2533 7.78433 13.4084 7.92045 13.522 8.09801C13.6357 8.2732 13.6925 8.48153 13.6925 8.72301C13.6925 8.93608 13.6499 9.13731 13.5646 9.3267C13.4794 9.5161 13.3504 9.71615 13.1776 9.92685C13.0071 10.1352 12.7905 10.3778 12.5277 10.6548L10.0668 13.2045Z" fill="white"/>
</svg>
