<svg width="55" height="40" viewBox="0 0 55 40" fill="none" xmlns="http://www.w3.org/2000/svg">
<g clip-path="url(#clip0_4209_2688)">
<path d="M23.5634 15.1941L18.987 26.3383H15.9733L13.7568 17.5232C13.7389 17.314 13.6677 17.1132 13.5503 16.9402C13.4329 16.7673 13.2733 16.6282 13.087 16.5366C12.2031 16.1071 11.2716 15.7868 10.3125 15.5823V15.2588H15.0963C15.4128 15.2626 15.7178 15.38 15.9572 15.5902C16.1965 15.8004 16.3547 16.0899 16.4038 16.4072L17.5838 22.8769L20.5178 15.2911L23.5634 15.1941ZM35.2515 22.699C35.2515 19.7714 31.2651 19.6097 31.297 18.2834C31.297 17.8952 31.6797 17.4585 32.4929 17.3615C33.4492 17.2633 34.4139 17.431 35.2834 17.8466L35.7777 15.4852C34.9294 15.1704 34.0339 15.0063 33.1308 15C30.3403 15 28.3471 16.5042 28.3471 18.6877C28.3471 20.3052 29.7503 21.1786 30.8186 21.7124C31.887 22.2461 32.2856 22.6181 32.2856 23.1034C32.2856 23.8474 31.4086 24.1709 30.5954 24.1871C29.5849 24.2141 28.585 23.9745 27.6933 23.4916L27.1352 25.9339C28.1524 26.3307 29.2344 26.5283 30.3243 26.5162C33.2902 26.5162 35.2196 25.0281 35.2356 22.699H35.2515ZM42.6025 26.3383H45.2016L42.9373 15.1941H40.5455C40.2854 15.1938 40.0314 15.2722 39.8155 15.4191C39.5996 15.566 39.4318 15.7749 39.3336 16.019L35.108 26.3383H38.0739L38.648 24.7208H42.2676L42.6025 26.3383ZM39.4133 22.3917L40.9122 18.2187L41.8052 22.3755L39.4133 22.3917ZM27.5498 15.1941L25.2217 26.3383H22.4472L24.7753 15.1941H27.5498Z" fill="#1434CB"/>
</g>
<defs>
<clipPath id="clip0_4209_2688">
<rect width="55" height="40" rx="4" fill="white"/>
</clipPath>
</defs>
</svg>
