<svg width="16" height="16" viewBox="0 0 16 16" fill="none" xmlns="http://www.w3.org/2000/svg">
<path d="M9.79919 15.1666H6.19919C2.90586 15.1666 1.50586 13.76 1.50586 10.4733V7.47998C1.50586 7.20665 1.73253 6.97998 2.00586 6.97998C2.27919 6.97998 2.50586 7.20665 2.50586 7.47998V10.4733C2.50586 13.2 3.47253 14.1666 6.19919 14.1666H9.79253C12.5192 14.1666 13.4859 13.2 13.4859 10.4733V7.47998C13.4859 7.20665 13.7125 6.97998 13.9859 6.97998C14.2592 6.97998 14.4859 7.20665 14.4859 7.47998V10.4733C14.4925 13.76 13.0859 15.1666 9.79919 15.1666Z" fill="#C91433"/>
<path d="M7.99935 8.49992C7.26602 8.49992 6.59935 8.21325 6.12602 7.68658C5.65268 7.15992 5.43268 6.47325 5.50602 5.73992L5.95268 1.28659C5.97935 1.03325 6.19268 0.833252 6.45268 0.833252H9.56602C9.82602 0.833252 10.0393 1.02659 10.066 1.28659L10.5127 5.73992C10.586 6.47325 10.366 7.15992 9.89268 7.68658C9.39935 8.21325 8.73268 8.49992 7.99935 8.49992ZM6.89935 1.83325L6.49935 5.83992C6.45268 6.28659 6.58602 6.70659 6.86602 7.01325C7.43268 7.63992 8.56602 7.63992 9.13268 7.01325C9.41268 6.69992 9.54602 6.27992 9.49935 5.83992L9.09935 1.83325H6.89935Z" fill="#C91433"/>
<path d="M12.206 8.49992C10.8527 8.49992 9.64602 7.40658 9.50602 6.05992L9.03935 1.38659C9.02602 1.24659 9.07268 1.10659 9.16602 0.999919C9.25935 0.893252 9.39268 0.833252 9.53935 0.833252H11.5727C13.5327 0.833252 14.446 1.65325 14.7194 3.66659L14.906 5.51992C14.986 6.30658 14.746 7.05325 14.2327 7.61992C13.7194 8.18659 12.9994 8.49992 12.206 8.49992ZM10.0927 1.83325L10.506 5.95992C10.5927 6.79325 11.366 7.49992 12.206 7.49992C12.7127 7.49992 13.166 7.30659 13.4927 6.95325C13.8127 6.59992 13.9594 6.12659 13.9127 5.61992L13.726 3.78658C13.5194 2.27992 13.0327 1.83325 11.5727 1.83325H10.0927V1.83325Z" fill="#C91433"/>
<path d="M3.76001 8.49992C2.96668 8.49992 2.24668 8.18659 1.73335 7.61992C1.22001 7.05325 0.980014 6.30658 1.06001 5.51992L1.24001 3.68659C1.52001 1.65325 2.43335 0.833252 4.39335 0.833252H6.42668C6.56668 0.833252 6.70001 0.893252 6.80001 0.999919C6.90001 1.10659 6.94001 1.24659 6.92668 1.38659L6.46001 6.05992C6.32001 7.40658 5.11335 8.49992 3.76001 8.49992ZM4.39335 1.83325C2.93335 1.83325 2.44668 2.27325 2.23335 3.79992L2.05335 5.61992C2.00001 6.12659 2.15335 6.59992 2.47335 6.95325C2.79335 7.30659 3.24668 7.49992 3.76001 7.49992C4.60001 7.49992 5.38001 6.79325 5.46001 5.95992L5.87335 1.83325H4.39335V1.83325Z" fill="#C91433"/>
<path d="M9.66732 15.1666H6.33398C6.06065 15.1666 5.83398 14.9399 5.83398 14.6666V12.9999C5.83398 11.5999 6.60065 10.8333 8.00065 10.8333C9.40065 10.8333 10.1673 11.5999 10.1673 12.9999V14.6666C10.1673 14.9399 9.94065 15.1666 9.66732 15.1666ZM6.83398 14.1666H9.16732V12.9999C9.16732 12.1599 8.84065 11.8333 8.00065 11.8333C7.16065 11.8333 6.83398 12.1599 6.83398 12.9999V14.1666Z" fill="#C91433"/>
</svg>
