<svg width="16" height="17" viewBox="0 0 16 17" fill="none" xmlns="http://www.w3.org/2000/svg">
<path d="M9.79919 15.6666H6.19919C2.90586 15.6666 1.50586 14.26 1.50586 10.9733V7.97998C1.50586 7.70665 1.73253 7.47998 2.00586 7.47998C2.27919 7.47998 2.50586 7.70665 2.50586 7.97998V10.9733C2.50586 13.7 3.47253 14.6666 6.19919 14.6666H9.79253C12.5192 14.6666 13.4859 13.7 13.4859 10.9733V7.97998C13.4859 7.70665 13.7125 7.47998 13.9859 7.47998C14.2592 7.47998 14.4859 7.70665 14.4859 7.97998V10.9733C14.4925 14.26 13.0859 15.6666 9.79919 15.6666Z" fill="#0C68F4"/>
<path d="M7.99935 8.99992C7.26602 8.99992 6.59935 8.71325 6.12602 8.18658C5.65268 7.65992 5.43268 6.97325 5.50602 6.23992L5.95268 1.78659C5.97935 1.53325 6.19268 1.33325 6.45268 1.33325H9.56602C9.82602 1.33325 10.0394 1.52659 10.066 1.78659L10.5127 6.23992C10.586 6.97325 10.366 7.65992 9.89268 8.18658C9.39935 8.71325 8.73268 8.99992 7.99935 8.99992ZM6.89935 2.33325L6.49935 6.33992C6.45268 6.78659 6.58602 7.20659 6.86602 7.51325C7.43268 8.13992 8.56602 8.13992 9.13268 7.51325C9.41268 7.19992 9.54602 6.77992 9.49935 6.33992L9.09935 2.33325H6.89935Z" fill="#0C68F4"/>
<path d="M12.206 8.99992C10.8527 8.99992 9.64602 7.90659 9.50602 6.55992L9.03935 1.88659C9.02602 1.74659 9.07268 1.60659 9.16602 1.49992C9.25935 1.39325 9.39268 1.33325 9.53935 1.33325H11.5727C13.5327 1.33325 14.446 2.15325 14.7194 4.16659L14.906 6.01992C14.986 6.80658 14.746 7.55325 14.2327 8.11992C13.7194 8.68658 12.9994 8.99992 12.206 8.99992ZM10.0927 2.33325L10.506 6.45992C10.5927 7.29325 11.366 7.99992 12.206 7.99992C12.7127 7.99992 13.166 7.80659 13.4927 7.45325C13.8127 7.09992 13.9594 6.62659 13.9127 6.11992L13.726 4.28659C13.5194 2.77992 13.0327 2.33325 11.5727 2.33325H10.0927Z" fill="#0C68F4"/>
<path d="M3.76001 8.99992C2.96668 8.99992 2.24668 8.68658 1.73335 8.11992C1.22001 7.55325 0.980014 6.80658 1.06001 6.01992L1.24001 4.18659C1.52001 2.15325 2.43335 1.33325 4.39335 1.33325H6.42668C6.56668 1.33325 6.70001 1.39325 6.80001 1.49992C6.90001 1.60659 6.94001 1.74659 6.92668 1.88659L6.46001 6.55992C6.32001 7.90659 5.11335 8.99992 3.76001 8.99992ZM4.39335 2.33325C2.93335 2.33325 2.44668 2.77325 2.23335 4.29992L2.05335 6.11992C2.00001 6.62659 2.15335 7.09992 2.47335 7.45325C2.79335 7.80659 3.24668 7.99992 3.76001 7.99992C4.60001 7.99992 5.38001 7.29325 5.46001 6.45992L5.87335 2.33325H4.39335Z" fill="#0C68F4"/>
<path d="M9.66732 15.6666H6.33398C6.06065 15.6666 5.83398 15.4399 5.83398 15.1666V13.4999C5.83398 12.0999 6.60065 11.3333 8.00065 11.3333C9.40065 11.3333 10.1673 12.0999 10.1673 13.4999V15.1666C10.1673 15.4399 9.94065 15.6666 9.66732 15.6666ZM6.83398 14.6666H9.16732V13.4999C9.16732 12.6599 8.84065 12.3333 8.00065 12.3333C7.16065 12.3333 6.83398 12.6599 6.83398 13.4999V14.6666Z" fill="#0C68F4"/>
</svg>
