<svg width="32" height="32" viewBox="0 0 32 32" fill="none" xmlns="http://www.w3.org/2000/svg">
<path d="M21.5202 3.94666L9.48016 7.94666C1.38682 10.6533 1.38682 15.0667 9.48016 17.76L13.0535 18.9467L14.2402 22.52C16.9335 30.6133 21.3602 30.6133 24.0535 22.52L28.0668 10.4933C29.8535 5.09333 26.9202 2.14666 21.5202 3.94666ZM21.9468 11.12L16.8802 16.2133C16.6802 16.4133 16.4268 16.5067 16.1735 16.5067C15.9202 16.5067 15.6668 16.4133 15.4668 16.2133C15.0802 15.8267 15.0802 15.1867 15.4668 14.8L20.5335 9.70666C20.9202 9.32 21.5602 9.32 21.9468 9.70666C22.3335 10.0933 22.3335 10.7333 21.9468 11.12Z" fill="#0C68F4"/>
</svg>
