<svg width="32" height="32" viewBox="0 0 32 32" fill="none" xmlns="http://www.w3.org/2000/svg">
<path d="M17.3327 19.6667H2.66602C2.11935 19.6667 1.66602 19.2134 1.66602 18.6667V8.00008C1.66602 4.50675 4.50602 1.66675 7.99935 1.66675H19.9993C20.546 1.66675 20.9993 2.12008 20.9993 2.66675V16.0001C20.9993 18.0267 19.3594 19.6667 17.3327 19.6667ZM3.66602 17.6667H17.3327C18.2527 17.6667 18.9993 16.9201 18.9993 16.0001V3.66675H7.99935C5.61268 3.66675 3.66602 5.61341 3.66602 8.00008V17.6667Z" fill="white"/>
<path d="M25.3327 27.6667H23.9993C23.4527 27.6667 22.9993 27.2134 22.9993 26.6667C22.9993 25.7467 22.2527 25.0001 21.3327 25.0001C20.4127 25.0001 19.666 25.7467 19.666 26.6667C19.666 27.2134 19.2127 27.6667 18.666 27.6667H13.3327C12.786 27.6667 12.3327 27.2134 12.3327 26.6667C12.3327 25.7467 11.586 25.0001 10.666 25.0001C9.74602 25.0001 8.99935 25.7467 8.99935 26.6667C8.99935 27.2134 8.54602 27.6667 7.99935 27.6667H6.66602C3.90602 27.6667 1.66602 25.4267 1.66602 22.6667V18.6667C1.66602 18.1201 2.11935 17.6667 2.66602 17.6667H17.3327C18.2527 17.6667 18.9993 16.9201 18.9993 16.0001V6.66675C18.9993 6.12008 19.4527 5.66675 19.9993 5.66675H22.4527C23.7727 5.66675 24.986 6.37343 25.6394 7.5201L27.9194 11.5068C28.0927 11.8134 28.0927 12.2001 27.9194 12.5068C27.746 12.8134 27.4127 13.0001 27.0527 13.0001H25.3327C25.146 13.0001 24.9993 13.1467 24.9993 13.3334V17.3334C24.9993 17.5201 25.146 17.6667 25.3327 17.6667H29.3327C29.8794 17.6667 30.3327 18.1201 30.3327 18.6667V22.6667C30.3327 25.4267 28.0927 27.6667 25.3327 27.6667ZM24.866 25.6667H25.3327C26.986 25.6667 28.3327 24.3201 28.3327 22.6667V19.6667H25.3327C24.0527 19.6667 22.9993 18.6134 22.9993 17.3334V13.3334C22.9993 12.0534 24.0394 11.0001 25.3327 11.0001L23.906 8.50675C23.6127 7.98675 23.0527 7.66675 22.4527 7.66675H20.9993V16.0001C20.9993 18.0267 19.3594 19.6667 17.3327 19.6667H3.66602V22.6667C3.66602 24.3201 5.01268 25.6667 6.66602 25.6667H7.13269C7.57269 24.1334 8.98602 23.0001 10.666 23.0001C12.346 23.0001 13.7593 24.1334 14.1993 25.6667H17.8127C18.2527 24.1334 19.666 23.0001 21.346 23.0001C23.026 23.0001 24.426 24.1334 24.866 25.6667Z" fill="white"/>
<path d="M10.6667 30.3333C8.64 30.3333 7 28.6933 7 26.6667C7 24.64 8.64 23 10.6667 23C12.6933 23 14.3333 24.64 14.3333 26.6667C14.3333 28.6933 12.6933 30.3333 10.6667 30.3333ZM10.6667 25C9.74667 25 9 25.7467 9 26.6667C9 27.5867 9.74667 28.3333 10.6667 28.3333C11.5867 28.3333 12.3333 27.5867 12.3333 26.6667C12.3333 25.7467 11.5867 25 10.6667 25Z" fill="white"/>
<path d="M21.3327 30.3333C19.306 30.3333 17.666 28.6933 17.666 26.6667C17.666 24.64 19.306 23 21.3327 23C23.3593 23 24.9993 24.64 24.9993 26.6667C24.9993 28.6933 23.3593 30.3333 21.3327 30.3333ZM21.3327 25C20.4127 25 19.666 25.7467 19.666 26.6667C19.666 27.5867 20.4127 28.3333 21.3327 28.3333C22.2527 28.3333 22.9993 27.5867 22.9993 26.6667C22.9993 25.7467 22.2527 25 21.3327 25Z" fill="white"/>
<path d="M29.3333 19.6667H25.3333C24.0533 19.6667 23 18.6133 23 17.3333V13.3333C23 12.0533 24.0533 11 25.3333 11H27.0533C27.4133 11 27.7467 11.1867 27.92 11.5067L30.2 15.5067C30.28 15.6533 30.3333 15.8267 30.3333 16V18.6667C30.3333 19.2133 29.88 19.6667 29.3333 19.6667ZM25.3333 13C25.1467 13 25 13.1467 25 13.3333V17.3333C25 17.52 25.1467 17.6667 25.3333 17.6667H28.3333V16.2667L26.4667 13H25.3333Z" fill="white"/>
</svg>
