<svg width="48" height="48" viewBox="0 0 48 48" fill="none" xmlns="http://www.w3.org/2000/svg">
<path d="M23.9404 4C12.9004 4 3.94043 12.96 3.94043 24C3.94043 35.04 12.9004 44 23.9404 44C34.9804 44 43.9404 35.04 43.9404 24C43.9404 12.96 35.0004 4 23.9404 4ZM29.9404 28.46L24.1404 31.8C23.4204 32.22 22.6204 32.42 21.8404 32.42C21.0404 32.42 20.2604 32.22 19.5404 31.8C18.1004 30.96 17.2404 29.48 17.2404 27.8V21.1C17.2404 19.44 18.1004 17.94 19.5404 17.1C20.9804 16.26 22.7004 16.26 24.1604 17.1L29.9604 20.44C31.4004 21.28 32.2604 22.76 32.2604 24.44C32.2604 26.12 31.4004 27.62 29.9404 28.46Z" fill="white"/>
</svg>
