<svg width="16" height="16" viewBox="0 0 16 16" fill="none" xmlns="http://www.w3.org/2000/svg">
<path d="M7.1937 10.1134C7.06036 10.1134 6.9337 10.06 6.84036 9.96669L5.22703 8.35335C5.0337 8.16002 5.0337 7.84002 5.22703 7.64669C5.42036 7.45335 5.74036 7.45335 5.9337 7.64669L7.1937 8.90669L10.0604 6.04002C10.2537 5.84669 10.5737 5.84669 10.767 6.04002C10.9604 6.23335 10.9604 6.55335 10.767 6.74669L7.54703 9.96669C7.4537 10.06 7.32703 10.1134 7.1937 10.1134Z" fill="#0C68F4"/>
<path d="M7.99927 15.1666C7.57927 15.1666 7.15927 15.0266 6.8326 14.7466L5.77927 13.8399C5.6726 13.7466 5.40594 13.6533 5.26594 13.6533H4.11927C3.1326 13.6533 2.3326 12.8533 2.3326 11.8666V10.7266C2.3326 10.5866 2.23927 10.3266 2.14594 10.2199L1.24594 9.15992C0.699271 8.51325 0.699271 7.49325 1.24594 6.84659L2.14594 5.78659C2.23927 5.67992 2.3326 5.41992 2.3326 5.27992V4.13325C2.3326 3.14659 3.1326 2.34659 4.11927 2.34659H5.2726C5.4126 2.34659 5.67927 2.24659 5.78594 2.15992L6.83927 1.25325C7.4926 0.693252 8.5126 0.693252 9.16594 1.25325L10.2193 2.15992C10.3259 2.25325 10.5926 2.34659 10.7326 2.34659H11.8659C12.8526 2.34659 13.6526 3.14659 13.6526 4.13325V5.26659C13.6526 5.40659 13.7526 5.67325 13.8459 5.77992L14.7526 6.83325C15.3126 7.48659 15.3126 8.50659 14.7526 9.15992L13.8459 10.2133C13.7526 10.3199 13.6526 10.5866 13.6526 10.7266V11.8599C13.6526 12.8466 12.8526 13.6466 11.8659 13.6466H10.7326C10.5926 13.6466 10.3259 13.7466 10.2193 13.8333L9.16594 14.7399C8.83927 15.0266 8.41927 15.1666 7.99927 15.1666ZM4.11927 3.34659C3.68594 3.34659 3.3326 3.69992 3.3326 4.13325V5.27325C3.3326 5.65325 3.1526 6.13992 2.90594 6.42659L2.00594 7.48659C1.7726 7.75992 1.7726 8.23325 2.00594 8.50659L2.90594 9.56659C3.1526 9.85992 3.3326 10.3399 3.3326 10.7199V11.8599C3.3326 12.2933 3.68594 12.6466 4.11927 12.6466H5.2726C5.65927 12.6466 6.14594 12.8266 6.43927 13.0799L7.4926 13.9866C7.76594 14.2199 8.24594 14.2199 8.51927 13.9866L9.5726 13.0799C9.86594 12.8333 10.3526 12.6466 10.7393 12.6466H11.8726C12.3059 12.6466 12.6593 12.2933 12.6593 11.8599V10.7266C12.6593 10.3399 12.8393 9.85325 13.0926 9.55992L13.9993 8.50659C14.2326 8.23325 14.2326 7.75325 13.9993 7.47992L13.0926 6.42659C12.8393 6.13325 12.6593 5.64659 12.6593 5.25992V4.13325C12.6593 3.69992 12.3059 3.34659 11.8726 3.34659H10.7393C10.3526 3.34659 9.86594 3.16659 9.5726 2.91325L8.51927 2.00659C8.24594 1.77325 7.76594 1.77325 7.4926 2.00659L6.43927 2.91992C6.14594 3.16659 5.6526 3.34659 5.2726 3.34659H4.11927Z" fill="#0C68F4"/>
</svg>
