<svg width="32" height="32" viewBox="0 0 32 32" fill="none" xmlns="http://www.w3.org/2000/svg">
<path d="M16.0007 24.6667C12.8807 24.6667 10.334 22.12 10.334 19C10.334 18.4533 10.7873 18 11.334 18C11.8807 18 12.334 18.4533 12.334 19C12.334 21.0267 13.974 22.6667 16.0007 22.6667C18.0273 22.6667 19.6673 21.0267 19.6673 19C19.6673 18.4533 20.1207 18 20.6673 18C21.214 18 21.6673 18.4533 21.6673 19C21.6673 22.12 19.1207 24.6667 16.0007 24.6667Z" fill="white"/>
<path d="M6.9205 8.50659C6.66716 8.50659 6.40049 8.39992 6.21383 8.21326C5.82716 7.82659 5.82716 7.18659 6.21383 6.79992L11.0538 1.95992C11.4405 1.57326 12.0805 1.57326 12.4672 1.95992C12.8538 2.34659 12.8538 2.98659 12.4672 3.37326L7.62716 8.21326C7.42716 8.39992 7.17383 8.50659 6.9205 8.50659Z" fill="white"/>
<path d="M25.0808 8.50659C24.8275 8.50659 24.5741 8.41326 24.3741 8.21326L19.5341 3.37326C19.1475 2.98659 19.1475 2.34659 19.5341 1.95992C19.9208 1.57326 20.5608 1.57326 20.9475 1.95992L25.7875 6.79992C26.1741 7.18659 26.1741 7.82659 25.7875 8.21326C25.6008 8.39992 25.3341 8.50659 25.0808 8.50659Z" fill="white"/>
<path d="M26.946 14.1334C26.8527 14.1334 26.7593 14.1334 26.666 14.1334H26.3594H5.33268C4.39935 14.1467 3.33268 14.1467 2.55935 13.3734C1.94602 12.7734 1.66602 11.84 1.66602 10.4667C1.66602 6.80005 4.34602 6.80005 5.62602 6.80005H26.3727C27.6527 6.80005 30.3327 6.80005 30.3327 10.4667C30.3327 11.8534 30.0527 12.7734 29.4393 13.3734C28.746 14.0667 27.8127 14.1334 26.946 14.1334ZM5.62602 12.1334H26.6794C27.2794 12.1467 27.8394 12.1467 28.026 11.96C28.1194 11.8667 28.3193 11.5467 28.3193 10.4667C28.3193 8.96005 27.946 8.80005 26.3594 8.80005H5.62602C4.03935 8.80005 3.66602 8.96005 3.66602 10.4667C3.66602 11.5467 3.87935 11.8667 3.95935 11.96C4.14602 12.1334 4.71935 12.1334 5.30602 12.1334H5.62602Z" fill="white"/>
<path d="M19.8537 30.3332H11.8137C7.04032 30.3332 5.97366 27.4933 5.56032 25.0266L3.68032 13.4932C3.58699 12.9466 3.96032 12.4399 4.50699 12.3466C5.04032 12.2533 5.56032 12.6266 5.65366 13.1733L7.53366 24.6933C7.92032 27.0533 8.72032 28.3332 11.8137 28.3332H19.8537C23.2803 28.3332 23.667 27.1333 24.107 24.8133L26.347 13.1466C26.4537 12.5999 26.9737 12.2399 27.5203 12.3599C28.067 12.4666 28.4137 12.9866 28.307 13.5332L26.067 25.1999C25.547 27.9066 24.6803 30.3332 19.8537 30.3332Z" fill="white"/>
</svg>
