<svg width="48" height="48" viewBox="0 0 48 48" fill="none" xmlns="http://www.w3.org/2000/svg">
<path d="M26 29.5H4C3.18 29.5 2.5 28.82 2.5 28V12C2.5 6.76 6.76 2.5 12 2.5H30C30.82 2.5 31.5 3.18 31.5 4V24C31.5 27.04 29.04 29.5 26 29.5ZM5.5 26.5H26C27.38 26.5 28.5 25.38 28.5 24V5.5H12C8.42 5.5 5.5 8.42 5.5 12V26.5Z" fill="#0C68F4"/>
<path d="M38 41.5H36C35.18 41.5 34.5 40.82 34.5 40C34.5 38.62 33.38 37.5 32 37.5C30.62 37.5 29.5 38.62 29.5 40C29.5 40.82 28.82 41.5 28 41.5H20C19.18 41.5 18.5 40.82 18.5 40C18.5 38.62 17.38 37.5 16 37.5C14.62 37.5 13.5 38.62 13.5 40C13.5 40.82 12.82 41.5 12 41.5H10C5.86 41.5 2.5 38.14 2.5 34V28C2.5 27.18 3.18 26.5 4 26.5H26C27.38 26.5 28.5 25.38 28.5 24V10C28.5 9.18 29.18 8.5 30 8.5H33.68C35.66 8.5 37.48 9.56003 38.46 11.28L41.88 17.26C42.14 17.72 42.14 18.3 41.88 18.76C41.62 19.22 41.12 19.5 40.58 19.5H38C37.72 19.5 37.5 19.72 37.5 20V26C37.5 26.28 37.72 26.5 38 26.5H44C44.82 26.5 45.5 27.18 45.5 28V34C45.5 38.14 42.14 41.5 38 41.5ZM37.3 38.5H38C40.48 38.5 42.5 36.48 42.5 34V29.5H38C36.08 29.5 34.5 27.92 34.5 26V20C34.5 18.08 36.06 16.5 38 16.5L35.86 12.76C35.42 11.98 34.58 11.5 33.68 11.5H31.5V24C31.5 27.04 29.04 29.5 26 29.5H5.5V34C5.5 36.48 7.52 38.5 10 38.5H10.7C11.36 36.2 13.48 34.5 16 34.5C18.52 34.5 20.64 36.2 21.3 38.5H26.72C27.38 36.2 29.5 34.5 32.02 34.5C34.54 34.5 36.64 36.2 37.3 38.5Z" fill="#0C68F4"/>
<path d="M16 45.5C12.96 45.5 10.5 43.04 10.5 40C10.5 36.96 12.96 34.5 16 34.5C19.04 34.5 21.5 36.96 21.5 40C21.5 43.04 19.04 45.5 16 45.5ZM16 37.5C14.62 37.5 13.5 38.62 13.5 40C13.5 41.38 14.62 42.5 16 42.5C17.38 42.5 18.5 41.38 18.5 40C18.5 38.62 17.38 37.5 16 37.5Z" fill="#0C68F4"/>
<path d="M32 45.5C28.96 45.5 26.5 43.04 26.5 40C26.5 36.96 28.96 34.5 32 34.5C35.04 34.5 37.5 36.96 37.5 40C37.5 43.04 35.04 45.5 32 45.5ZM32 37.5C30.62 37.5 29.5 38.62 29.5 40C29.5 41.38 30.62 42.5 32 42.5C33.38 42.5 34.5 41.38 34.5 40C34.5 38.62 33.38 37.5 32 37.5Z" fill="#0C68F4"/>
<path d="M44 29.5H38C36.08 29.5 34.5 27.92 34.5 26V20C34.5 18.08 36.08 16.5 38 16.5H40.58C41.12 16.5 41.62 16.78 41.88 17.26L45.3 23.26C45.42 23.48 45.5 23.74 45.5 24V28C45.5 28.82 44.82 29.5 44 29.5ZM38 19.5C37.72 19.5 37.5 19.72 37.5 20V26C37.5 26.28 37.72 26.5 38 26.5H42.5V24.4L39.7 19.5H38Z" fill="#0C68F4"/>
</svg>
