<svg width="24" height="24" viewBox="0 0 24 24" fill="none" xmlns="http://www.w3.org/2000/svg">
<path d="M10.7996 22.1C10.5096 22.1 10.2196 22.05 9.94955 21.95C8.69955 21.54 7.89955 20.16 8.17955 18.88L8.66955 15.73C8.67955 15.66 8.67955 15.56 8.60955 15.48C8.55955 15.43 8.48955 15.4 8.40955 15.4H4.40955C3.42955 15.4 2.57955 14.99 2.07955 14.28C1.58955 13.59 1.48955 12.68 1.80955 11.8L4.19955 4.52002C4.56955 3.07002 6.11955 1.90002 7.71955 1.90002H11.5196C12.0796 1.90002 13.2996 2.07002 13.9496 2.72002L16.9796 5.06002L16.0596 6.25002L12.9596 3.85002C12.7096 3.60002 12.0796 3.40002 11.5196 3.40002H7.71955C6.81955 3.40002 5.84955 4.12002 5.64955 4.93002L3.22955 12.28C3.06955 12.72 3.09955 13.12 3.30955 13.41C3.52955 13.72 3.92955 13.9 4.41955 13.9H8.41955C8.93955 13.9 9.41955 14.12 9.74955 14.5C10.0896 14.89 10.2396 15.41 10.1596 15.95L9.65955 19.16C9.53955 19.72 9.91955 20.35 10.4596 20.53C10.9396 20.71 11.5796 20.45 11.7996 20.13L15.8996 14.03L17.1396 14.87L13.0396 20.97C12.5696 21.67 11.6796 22.1 10.7996 22.1Z" fill="#0C68F4"/>
<path d="M19.6201 18.1H18.6201C16.7701 18.1 15.8701 17.23 15.8701 15.45V5.65C15.8701 3.87 16.7701 3 18.6201 3H19.6201C21.4701 3 22.3701 3.87 22.3701 5.65V15.45C22.3701 17.23 21.4701 18.1 19.6201 18.1ZM18.6201 4.5C17.5301 4.5 17.3701 4.76 17.3701 5.65V15.45C17.3701 16.34 17.5301 16.6 18.6201 16.6H19.6201C20.7101 16.6 20.8701 16.34 20.8701 15.45V5.65C20.8701 4.76 20.7101 4.5 19.6201 4.5H18.6201Z" fill="#0C68F4"/>
</svg>
