<svg width="20" height="20" viewBox="0 0 20 20" fill="none" xmlns="http://www.w3.org/2000/svg">
<path d="M10.0007 18.9583C5.63398 18.9583 2.08398 15.4083 2.08398 11.0417C2.08398 6.675 5.63398 3.125 10.0007 3.125C14.3673 3.125 17.9173 6.675 17.9173 11.0417C17.9173 15.4083 14.3673 18.9583 10.0007 18.9583ZM10.0007 4.375C6.32565 4.375 3.33398 7.36667 3.33398 11.0417C3.33398 14.7167 6.32565 17.7083 10.0007 17.7083C13.6757 17.7083 16.6673 14.7167 16.6673 11.0417C16.6673 7.36667 13.6757 4.375 10.0007 4.375Z" fill="#717171"/>
<path d="M10 11.4583C9.65833 11.4583 9.375 11.175 9.375 10.8333V6.66667C9.375 6.325 9.65833 6.04167 10 6.04167C10.3417 6.04167 10.625 6.325 10.625 6.66667V10.8333C10.625 11.175 10.3417 11.4583 10 11.4583Z" fill="#717171"/>
<path d="M12.5 2.29167H7.5C7.15833 2.29167 6.875 2.00833 6.875 1.66667C6.875 1.325 7.15833 1.04167 7.5 1.04167H12.5C12.8417 1.04167 13.125 1.325 13.125 1.66667C13.125 2.00833 12.8417 2.29167 12.5 2.29167Z" fill="#717171"/>
</svg>
