<svg width="48" height="48" viewBox="0 0 48 48" fill="none" xmlns="http://www.w3.org/2000/svg">
<path d="M24 37C19.32 37 15.5 33.18 15.5 28.5C15.5 27.68 16.18 27 17 27C17.82 27 18.5 27.68 18.5 28.5C18.5 31.54 20.96 34 24 34C27.04 34 29.5 31.54 29.5 28.5C29.5 27.68 30.18 27 31 27C31.82 27 32.5 27.68 32.5 28.5C32.5 33.18 28.68 37 24 37Z" fill="#0C68F4"/>
<path d="M10.3798 12.7599C9.99977 12.7599 9.59977 12.5999 9.31977 12.3199C8.73977 11.7399 8.73977 10.7799 9.31977 10.1999L16.5798 2.93988C17.1598 2.35988 18.1198 2.35988 18.6998 2.93988C19.2798 3.51988 19.2798 4.47988 18.6998 5.05988L11.4398 12.3199C11.1398 12.5999 10.7598 12.7599 10.3798 12.7599Z" fill="#0C68F4"/>
<path d="M37.6202 12.7599C37.2402 12.7599 36.8602 12.6199 36.5602 12.3199L29.3002 5.05988C28.7202 4.47988 28.7202 3.51988 29.3002 2.93988C29.8802 2.35988 30.8402 2.35988 31.4202 2.93988L38.6802 10.1999C39.2602 10.7799 39.2602 11.7399 38.6802 12.3199C38.4002 12.5999 38.0002 12.7599 37.6202 12.7599Z" fill="#0C68F4"/>
<path d="M40.42 21.2C40.28 21.2 40.14 21.2 40 21.2H39.54H8C6.6 21.22 5 21.22 3.84 20.06C2.92 19.16 2.5 17.76 2.5 15.7C2.5 10.2 6.52 10.2 8.44 10.2H39.56C41.48 10.2 45.5 10.2 45.5 15.7C45.5 17.78 45.08 19.16 44.16 20.06C43.12 21.1 41.72 21.2 40.42 21.2ZM8.44 18.2H40.02C40.92 18.22 41.76 18.22 42.04 17.94C42.18 17.8 42.48 17.32 42.48 15.7C42.48 13.44 41.92 13.2 39.54 13.2H8.44C6.06 13.2 5.5 13.44 5.5 15.7C5.5 17.32 5.82 17.8 5.94 17.94C6.22 18.2 7.08 18.2 7.96 18.2H8.44Z" fill="#0C68F4"/>
<path d="M29.7795 45.5H17.7195C10.5595 45.5 8.95951 41.24 8.33951 37.54L5.51951 20.24C5.37951 19.42 5.93951 18.66 6.75951 18.52C7.55951 18.38 8.33951 18.94 8.47951 19.76L11.2995 37.04C11.8795 40.58 13.0795 42.5 17.7195 42.5H29.7795C34.9195 42.5 35.4995 40.7 36.1595 37.22L39.5195 19.72C39.6795 18.9 40.4595 18.36 41.2795 18.54C42.0995 18.7 42.6195 19.48 42.4595 20.3L39.0995 37.8C38.3195 41.86 37.0195 45.5 29.7795 45.5Z" fill="#0C68F4"/>
</svg>
