<svg width="16" height="16" viewBox="0 0 16 16" fill="none" xmlns="http://www.w3.org/2000/svg">
<path d="M8.66732 9.83325H1.33398C1.06065 9.83325 0.833984 9.60659 0.833984 9.33325V3.99992C0.833984 2.25325 2.25398 0.833252 4.00065 0.833252H10.0007C10.274 0.833252 10.5007 1.05992 10.5007 1.33325V7.99992C10.5007 9.01325 9.68065 9.83325 8.66732 9.83325ZM1.83398 8.83325H8.66732C9.12732 8.83325 9.50065 8.45992 9.50065 7.99992V1.83325H4.00065C2.80732 1.83325 1.83398 2.80659 1.83398 3.99992V8.83325Z" fill="#0C68F4"/>
<path d="M12.6673 13.8333H12.0007C11.7273 13.8333 11.5007 13.6066 11.5007 13.3333C11.5007 12.8733 11.1273 12.4999 10.6673 12.4999C10.2073 12.4999 9.83398 12.8733 9.83398 13.3333C9.83398 13.6066 9.60732 13.8333 9.33398 13.8333H6.66732C6.39398 13.8333 6.16732 13.6066 6.16732 13.3333C6.16732 12.8733 5.79398 12.4999 5.33398 12.4999C4.87398 12.4999 4.50065 12.8733 4.50065 13.3333C4.50065 13.6066 4.27398 13.8333 4.00065 13.8333H3.33398C1.95398 13.8333 0.833984 12.7133 0.833984 11.3333V9.33325C0.833984 9.05992 1.06065 8.83325 1.33398 8.83325H8.66732C9.12732 8.83325 9.50065 8.45992 9.50065 7.99992V3.33325C9.50065 3.05992 9.72732 2.83325 10.0007 2.83325H11.2273C11.8873 2.83325 12.494 3.1866 12.8207 3.75993L13.9607 5.75326C14.0473 5.90659 14.0473 6.09992 13.9607 6.25326C13.874 6.40659 13.7073 6.49992 13.5273 6.49992H12.6673C12.574 6.49992 12.5007 6.57325 12.5007 6.66659V8.66659C12.5007 8.75992 12.574 8.83325 12.6673 8.83325H14.6673C14.9407 8.83325 15.1673 9.05992 15.1673 9.33325V11.3333C15.1673 12.7133 14.0473 13.8333 12.6673 13.8333ZM12.434 12.8333H12.6673C13.494 12.8333 14.1673 12.1599 14.1673 11.3333V9.83325H12.6673C12.0273 9.83325 11.5007 9.30659 11.5007 8.66659V6.66659C11.5007 6.02659 12.0207 5.49992 12.6673 5.49992L11.954 4.25326C11.8073 3.99326 11.5273 3.83325 11.2273 3.83325H10.5007V7.99992C10.5007 9.01325 9.68065 9.83325 8.66732 9.83325H1.83398V11.3333C1.83398 12.1599 2.50732 12.8333 3.33398 12.8333H3.56732C3.78732 12.0666 4.49398 11.4999 5.33398 11.4999C6.17398 11.4999 6.88065 12.0666 7.10065 12.8333H8.90731C9.12731 12.0666 9.83399 11.4999 10.674 11.4999C11.514 11.4999 12.214 12.0666 12.434 12.8333Z" fill="#0C68F4"/>
<path d="M5.33333 15.1667C4.32 15.1667 3.5 14.3467 3.5 13.3333C3.5 12.32 4.32 11.5 5.33333 11.5C6.34667 11.5 7.16667 12.32 7.16667 13.3333C7.16667 14.3467 6.34667 15.1667 5.33333 15.1667ZM5.33333 12.5C4.87333 12.5 4.5 12.8733 4.5 13.3333C4.5 13.7933 4.87333 14.1667 5.33333 14.1667C5.79333 14.1667 6.16667 13.7933 6.16667 13.3333C6.16667 12.8733 5.79333 12.5 5.33333 12.5Z" fill="#0C68F4"/>
<path d="M10.6673 15.1667C9.65398 15.1667 8.83398 14.3467 8.83398 13.3333C8.83398 12.32 9.65398 11.5 10.6673 11.5C11.6807 11.5 12.5007 12.32 12.5007 13.3333C12.5007 14.3467 11.6807 15.1667 10.6673 15.1667ZM10.6673 12.5C10.2073 12.5 9.83398 12.8733 9.83398 13.3333C9.83398 13.7933 10.2073 14.1667 10.6673 14.1667C11.1273 14.1667 11.5007 13.7933 11.5007 13.3333C11.5007 12.8733 11.1273 12.5 10.6673 12.5Z" fill="#0C68F4"/>
<path d="M14.6667 9.83333H12.6667C12.0267 9.83333 11.5 9.30667 11.5 8.66667V6.66667C11.5 6.02667 12.0267 5.5 12.6667 5.5H13.5267C13.7067 5.5 13.8733 5.59334 13.96 5.75334L15.1 7.75334C15.14 7.82667 15.1667 7.91333 15.1667 8V9.33333C15.1667 9.60667 14.94 9.83333 14.6667 9.83333ZM12.6667 6.5C12.5733 6.5 12.5 6.57333 12.5 6.66667V8.66667C12.5 8.76 12.5733 8.83333 12.6667 8.83333H14.1667V8.13334L13.2333 6.5H12.6667Z" fill="#0C68F4"/>
</svg>
