<svg width="24" height="25" viewBox="0 0 24 25" fill="none" xmlns="http://www.w3.org/2000/svg">
<path d="M14.4301 19.32C14.2401 19.32 14.0501 19.25 13.9001 19.1C13.6101 18.81 13.6101 18.33 13.9001 18.04L19.4401 12.5L13.9001 6.96C13.6101 6.67 13.6101 6.19 13.9001 5.9C14.1901 5.61 14.6701 5.61 14.9601 5.9L21.0301 11.97C21.3201 12.26 21.3201 12.74 21.0301 13.03L14.9601 19.1C14.8101 19.25 14.6201 19.32 14.4301 19.32Z" fill="#0C0C0C"/>
<path d="M20.33 13.25H3.5C3.09 13.25 2.75 12.91 2.75 12.5C2.75 12.09 3.09 11.75 3.5 11.75H20.33C20.74 11.75 21.08 12.09 21.08 12.5C21.08 12.91 20.74 13.25 20.33 13.25Z" fill="#0C0C0C"/>
</svg>
