<svg width="20" height="21" viewBox="0 0 20 21" fill="none" xmlns="http://www.w3.org/2000/svg">
<rect width="20" height="20" transform="translate(0 0.5)" fill="white"/>
<path d="M6.66602 5.29167C6.32435 5.29167 6.04102 5.00834 6.04102 4.66667V2.16667C6.04102 1.82501 6.32435 1.54167 6.66602 1.54167C7.00768 1.54167 7.29102 1.82501 7.29102 2.16667V4.66667C7.29102 5.00834 7.00768 5.29167 6.66602 5.29167Z" fill="#717171"/>
<path d="M13.334 5.29167C12.9923 5.29167 12.709 5.00834 12.709 4.66667V2.16667C12.709 1.82501 12.9923 1.54167 13.334 1.54167C13.6757 1.54167 13.959 1.82501 13.959 2.16667V4.66667C13.959 5.00834 13.6757 5.29167 13.334 5.29167Z" fill="#717171"/>
<path d="M7.08333 12.5833C6.975 12.5833 6.86667 12.5583 6.76667 12.5167C6.65833 12.475 6.575 12.4167 6.49167 12.3417C6.34167 12.1833 6.25 11.975 6.25 11.75C6.25 11.6417 6.275 11.5333 6.31667 11.4333C6.35833 11.3333 6.41667 11.2417 6.49167 11.1583C6.575 11.0833 6.65833 11.025 6.76667 10.9833C7.06667 10.8583 7.44167 10.925 7.675 11.1583C7.825 11.3167 7.91667 11.5333 7.91667 11.75C7.91667 11.8 7.90833 11.8583 7.9 11.9167C7.89167 11.9667 7.875 12.0167 7.85 12.0667C7.83333 12.1167 7.80833 12.1667 7.775 12.2167C7.75 12.2583 7.70833 12.3 7.675 12.3417C7.51667 12.4917 7.3 12.5833 7.08333 12.5833Z" fill="#717171"/>
<path d="M9.99935 12.5833C9.89102 12.5833 9.78268 12.5583 9.68268 12.5167C9.57435 12.475 9.49102 12.4167 9.40768 12.3417C9.25768 12.1833 9.16602 11.975 9.16602 11.75C9.16602 11.6417 9.19102 11.5333 9.23268 11.4333C9.27435 11.3333 9.33268 11.2417 9.40768 11.1583C9.49102 11.0833 9.57435 11.025 9.68268 10.9833C9.98268 10.85 10.3577 10.925 10.591 11.1583C10.741 11.3167 10.8327 11.5333 10.8327 11.75C10.8327 11.8 10.8243 11.8583 10.816 11.9167C10.8077 11.9667 10.791 12.0167 10.766 12.0667C10.7493 12.1167 10.7243 12.1667 10.691 12.2167C10.666 12.2583 10.6243 12.3 10.591 12.3417C10.4327 12.4917 10.216 12.5833 9.99935 12.5833Z" fill="#717171"/>
<path d="M12.9173 12.5833C12.809 12.5833 12.7007 12.5583 12.6007 12.5167C12.4923 12.475 12.409 12.4167 12.3257 12.3417C12.2923 12.3 12.259 12.2583 12.2256 12.2167C12.1923 12.1667 12.1673 12.1167 12.1507 12.0667C12.1257 12.0167 12.109 11.9667 12.1007 11.9167C12.0923 11.8583 12.084 11.8 12.084 11.75C12.084 11.5333 12.1757 11.3167 12.3257 11.1583C12.409 11.0833 12.4923 11.025 12.6007 10.9833C12.909 10.85 13.2757 10.925 13.509 11.1583C13.659 11.3167 13.7507 11.5333 13.7507 11.75C13.7507 11.8 13.7423 11.8583 13.734 11.9167C13.7257 11.9667 13.709 12.0167 13.684 12.0667C13.6673 12.1167 13.6423 12.1667 13.609 12.2167C13.584 12.2583 13.5423 12.3 13.509 12.3417C13.3507 12.4917 13.134 12.5833 12.9173 12.5833Z" fill="#717171"/>
<path d="M7.08333 15.5C6.975 15.5 6.86667 15.475 6.76667 15.4334C6.66667 15.3917 6.575 15.3333 6.49167 15.2583C6.34167 15.1 6.25 14.8833 6.25 14.6667C6.25 14.5583 6.275 14.45 6.31667 14.35C6.35833 14.2417 6.41667 14.15 6.49167 14.075C6.8 13.7667 7.36667 13.7667 7.675 14.075C7.825 14.2333 7.91667 14.45 7.91667 14.6667C7.91667 14.8833 7.825 15.1 7.675 15.2583C7.51667 15.4083 7.3 15.5 7.08333 15.5Z" fill="#717171"/>
<path d="M9.99935 15.5C9.78268 15.5 9.56602 15.4083 9.40768 15.2583C9.25768 15.1 9.16602 14.8833 9.16602 14.6667C9.16602 14.5583 9.19102 14.45 9.23268 14.35C9.27435 14.2417 9.33268 14.15 9.40768 14.075C9.71602 13.7667 10.2827 13.7667 10.591 14.075C10.666 14.15 10.7243 14.2417 10.766 14.35C10.8077 14.45 10.8327 14.5583 10.8327 14.6667C10.8327 14.8833 10.741 15.1 10.591 15.2583C10.4327 15.4083 10.216 15.5 9.99935 15.5Z" fill="#717171"/>
<path d="M12.9173 15.5C12.7007 15.5 12.484 15.4084 12.3257 15.2584C12.2507 15.1834 12.1923 15.0917 12.1507 14.9834C12.109 14.8834 12.084 14.775 12.084 14.6667C12.084 14.5584 12.109 14.45 12.1507 14.35C12.1923 14.2417 12.2507 14.15 12.3257 14.075C12.5173 13.8834 12.809 13.7917 13.0757 13.85C13.134 13.8584 13.184 13.875 13.234 13.9C13.284 13.9167 13.334 13.9417 13.384 13.975C13.4257 14 13.4673 14.0417 13.509 14.075C13.659 14.2334 13.7507 14.45 13.7507 14.6667C13.7507 14.8834 13.659 15.1 13.509 15.2584C13.3507 15.4084 13.134 15.5 12.9173 15.5Z" fill="#717171"/>
<path d="M17.0827 8.69997H2.91602C2.57435 8.69997 2.29102 8.41663 2.29102 8.07497C2.29102 7.7333 2.57435 7.44997 2.91602 7.44997H17.0827C17.4243 7.44997 17.7077 7.7333 17.7077 8.07497C17.7077 8.41663 17.4243 8.69997 17.0827 8.69997Z" fill="#717171"/>
<path d="M13.3333 19.4583H6.66667C3.625 19.4583 1.875 17.7083 1.875 14.6667V7.58334C1.875 4.54167 3.625 2.79167 6.66667 2.79167H13.3333C16.375 2.79167 18.125 4.54167 18.125 7.58334V14.6667C18.125 17.7083 16.375 19.4583 13.3333 19.4583ZM6.66667 4.04167C4.28333 4.04167 3.125 5.20001 3.125 7.58334V14.6667C3.125 17.05 4.28333 18.2083 6.66667 18.2083H13.3333C15.7167 18.2083 16.875 17.05 16.875 14.6667V7.58334C16.875 5.20001 15.7167 4.04167 13.3333 4.04167H6.66667Z" fill="#717171"/>
</svg>
