<svg width="32" height="32" viewBox="0 0 32 32" fill="none" xmlns="http://www.w3.org/2000/svg">
<path d="M29.3327 12.3333H2.66602C2.11935 12.3333 1.66602 11.8799 1.66602 11.3333C1.66602 10.7866 2.11935 10.3333 2.66602 10.3333H29.3327C29.8793 10.3333 30.3327 10.7866 30.3327 11.3333C30.3327 11.8799 29.8793 12.3333 29.3327 12.3333Z" fill="white"/>
<path d="M10.6667 23H8C7.45333 23 7 22.5467 7 22C7 21.4533 7.45333 21 8 21H10.6667C11.2133 21 11.6667 21.4533 11.6667 22C11.6667 22.5467 11.2133 23 10.6667 23Z" fill="white"/>
<path d="M19.3333 23H14C13.4533 23 13 22.5467 13 22C13 21.4533 13.4533 21 14 21H19.3333C19.88 21 20.3333 21.4533 20.3333 22C20.3333 22.5467 19.88 23 19.3333 23Z" fill="white"/>
<path d="M23.4127 28.3334H8.58602C3.27935 28.3334 1.66602 26.7334 1.66602 21.4801V10.5201C1.66602 5.26675 3.27935 3.66675 8.58602 3.66675H23.3993C28.706 3.66675 30.3193 5.26675 30.3193 10.5201V21.4667C30.3327 26.7334 28.7193 28.3334 23.4127 28.3334ZM8.58602 5.66675C4.39935 5.66675 3.66602 6.38675 3.66602 10.5201V21.4667C3.66602 25.6001 4.39935 26.3201 8.58602 26.3201H23.3993C27.586 26.3201 28.3193 25.6001 28.3193 21.4667V10.5201C28.3193 6.38675 27.586 5.66675 23.3993 5.66675H8.58602Z" fill="white"/>
</svg>
